<?xml version="1.0" standalone="no"?>
<!DOCTYPE svg PUBLIC "-//W3C//DTD SVG 20010904//EN"
 "http://www.w3.org/TR/2001/REC-SVG-20010904/DTD/svg10.dtd">
<svg version="1.0" xmlns="http://www.w3.org/2000/svg"
 width="715.000000pt" height="715.000000pt" viewBox="0 0 715.000000 715.000000"
 preserveAspectRatio="xMidYMid meet">

<g transform="translate(0.000000,715.000000) scale(0.100000,-0.100000)"
fill="#000000" stroke="none">
<path d="M3939 7069 c-8 -5 -9 -9 -4 -9 98 -8 150 -25 124 -41 -12 -7 -11 -9
1 -10 8 -1 19 -1 24 0 4 1 13 -5 20 -12 13 -18 56 -29 56 -15 0 15 63 5 68
-11 3 -10 -1 -12 -17 -8 -11 3 -21 2 -21 -2 0 -10 40 -29 63 -30 44 -3 57 -6
57 -13 0 -4 -7 -8 -16 -8 -18 0 -46 -25 -37 -34 4 -3 14 -6 24 -6 10 0 34 -17
53 -37 37 -39 44 -53 25 -53 -6 0 -17 -6 -25 -14 -16 -16 -57 -9 -51 8 3 7 -4
12 -15 12 -15 0 -18 -5 -13 -24 5 -21 3 -23 -16 -17 -12 4 -19 3 -16 -2 3 -5
1 -15 -4 -23 -8 -13 -10 -13 -18 0 -8 12 -12 9 -20 -12 -11 -29 -49 -47 -61
-29 -3 7 -14 9 -23 5 -10 -3 -17 -1 -17 5 0 6 12 11 26 11 19 0 25 4 20 15 -3
8 -2 15 2 15 4 0 7 20 6 44 0 36 2 43 15 38 9 -3 19 -10 23 -16 5 -8 8 -7 8 1
0 6 -8 18 -18 25 -10 7 -21 21 -25 30 -7 20 -37 14 -37 -8 0 -9 -9 -13 -25
-12 -31 3 -33 25 -3 30 13 2 24 10 26 19 3 18 -31 36 -36 20 -5 -14 -32 -14
-32 -1 0 6 7 10 15 10 30 0 6 38 -36 57 -20 9 -29 9 -38 0 -9 -9 -16 -9 -31 1
-16 10 -18 9 -14 -2 4 -11 0 -13 -15 -9 -11 3 -19 8 -17 12 2 3 -8 7 -22 7
-25 2 -25 1 -8 -10 38 -23 76 -58 76 -71 0 -7 6 -16 13 -18 6 -3 -5 -6 -26 -6
-25 -1 -40 4 -43 14 -8 20 -34 19 -34 0 0 -12 -3 -13 -19 -3 -15 9 -23 9 -35
-1 -11 -9 -20 -10 -33 -2 -17 10 -17 10 0 11 11 0 15 4 11 12 -5 7 -2 9 9 5 8
-3 21 1 28 9 7 8 18 13 26 10 7 -3 13 -1 13 4 0 6 0 13 0 18 0 13 -34 9 -52
-6 -15 -13 -21 -13 -43 2 -23 15 -26 15 -32 0 -3 -9 0 -20 8 -26 10 -6 2 -8
-23 -3 -24 4 -38 2 -38 -5 0 -5 10 -10 23 -11 21 0 21 -1 2 -8 -11 -5 -23 -4
-26 0 -8 13 -97 -1 -103 -17 -5 -14 -63 -28 -93 -22 -13 2 -6 9 26 27 25 12
40 16 33 9 -9 -11 -7 -14 9 -15 16 -2 17 1 9 18 -6 10 -16 19 -22 19 -7 0 -6
5 2 15 18 22 -4 18 -24 -4 -17 -19 -46 -19 -46 1 0 5 4 7 9 4 4 -3 17 1 27 9
18 14 18 14 -1 10 -46 -10 -138 -13 -124 -4 8 5 26 9 42 9 17 0 27 5 27 15 0
8 6 15 13 15 6 0 21 13 31 28 11 15 13 21 6 15 -18 -16 -34 -17 -24 -1 5 7 2
9 -9 5 -9 -3 -18 -1 -20 6 -3 7 -4 2 -4 -9 1 -14 6 -20 14 -17 7 3 13 1 13 -5
0 -14 -28 -23 -35 -12 -3 6 -15 6 -29 0 -13 -5 -26 -6 -29 -4 -3 3 -17 -2 -31
-12 -15 -9 -29 -14 -33 -10 -3 3 0 6 8 6 11 0 11 2 -1 10 -22 14 -30 12 -23
-7 5 -17 5 -17 -11 -2 -14 13 -26 15 -57 8 -21 -5 -42 -8 -46 -8 -18 4 -72
-14 -67 -22 6 -10 -31 -49 -48 -49 -6 0 -24 -15 -39 -32 -25 -29 -28 -30 -30
-13 -1 11 -1 23 0 28 1 9 -3 9 -33 -3 -17 -6 -26 -6 -26 0 0 6 9 10 20 10 10
0 24 9 30 20 10 18 8 20 -17 20 -31 -1 -63 -21 -63 -39 0 -8 -8 -10 -19 -6
-11 3 -22 1 -26 -5 -3 -5 -17 -10 -30 -10 -13 0 -27 -5 -31 -11 -3 -6 -21 -9
-39 -7 -19 2 -31 0 -29 -4 3 -4 -7 -13 -21 -18 -33 -13 -38 -13 -30 0 3 6 4
10 1 10 -3 0 -12 -13 -20 -28 -12 -24 -30 -33 -105 -57 -50 -16 -89 -31 -87
-32 5 -6 97 17 131 32 43 19 268 56 254 41 -3 -3 -23 -12 -45 -20 -21 -8 -33
-15 -26 -15 24 -2 1 -21 -24 -21 -13 0 -24 5 -24 10 0 15 -37 12 -73 -7 l-32
-16 30 -13 30 -12 -45 -12 c-25 -7 -58 -13 -75 -15 -36 -3 -118 -26 -125 -34
-5 -6 -24 -12 -50 -16 -16 -2 -78 -28 -124 -52 -15 -8 -25 -10 -22 -4 9 14
-62 7 -77 -8 -20 -20 -31 -12 -12 9 10 11 26 20 36 20 9 0 30 14 46 31 28 30
76 61 90 57 16 -3 63 14 74 29 11 12 4 13 -51 8 -71 -6 -104 -20 -93 -38 4 -7
0 -6 -10 2 -16 12 -20 11 -37 -7 -11 -12 -20 -26 -20 -32 0 -6 -4 -8 -10 -5
-6 3 -7 -1 -4 -9 4 -11 0 -16 -15 -16 -12 0 -21 -5 -21 -11 0 -5 5 -7 11 -3 7
4 10 2 8 -5 -3 -7 -7 -11 -10 -9 -3 2 -13 -3 -23 -11 -15 -13 -15 -15 4 -28
11 -8 25 -11 32 -7 7 4 8 3 4 -4 -4 -7 -14 -12 -22 -12 -8 0 -14 -4 -14 -8 0
-5 -7 -9 -15 -9 -8 0 -15 4 -15 9 0 4 -9 3 -19 -4 -10 -6 -17 -17 -14 -23 2
-7 -10 -26 -26 -43 -20 -19 -26 -32 -18 -35 16 -5 -36 -73 -63 -82 -11 -3 -20
-10 -20 -15 0 -5 -10 -12 -22 -16 -13 -4 -28 -14 -34 -22 -8 -11 -13 -12 -18
-4 -4 7 -2 12 3 12 6 0 12 15 12 33 1 24 3 27 6 9 4 -23 5 -23 24 -6 10 9 19
22 19 29 0 7 14 22 30 35 17 13 30 32 30 42 0 11 9 33 21 49 15 22 17 27 5 23
-9 -3 -16 -14 -16 -23 0 -10 -3 -12 -8 -5 -5 9 -17 8 -45 -3 -26 -11 -35 -18
-26 -24 7 -4 14 -15 15 -24 2 -13 0 -14 -12 -4 -11 9 -14 8 -14 -5 0 -11 -5
-15 -12 -11 -7 4 -5 0 4 -7 15 -13 11 -41 -6 -39 -30 4 -37 -1 -34 -26 2 -20
-3 -30 -20 -38 -32 -17 -41 -29 -14 -21 12 4 22 3 22 -2 0 -5 -13 -12 -30 -14
-16 -3 -30 -1 -30 3 0 5 -12 4 -26 -1 -14 -6 -26 -10 -28 -10 -1 0 -2 9 -3 20
-1 11 2 20 8 20 5 0 9 9 9 20 0 21 15 27 25 10 3 -5 1 -10 -5 -10 -6 0 -9 -4
-6 -8 2 -4 23 -6 45 -4 32 3 41 8 41 23 0 10 -5 19 -11 19 -6 0 -8 7 -5 16 4
12 1 14 -14 9 -28 -9 -25 1 10 38 17 18 28 38 25 45 -2 7 1 12 8 11 6 -2 37 9
67 23 30 14 76 35 101 46 33 15 56 36 82 74 37 53 46 75 27 63 -6 -4 -29 -8
-52 -11 -28 -2 -52 -13 -71 -31 -17 -16 -27 -21 -23 -13 7 13 6 13 -6 0 -17
-19 -54 -40 -69 -40 -7 0 -18 -8 -26 -17 -8 -11 -11 -12 -7 -3 6 12 5 13 -7 4
-16 -13 -168 -94 -175 -94 -3 0 -2 5 1 10 3 6 -14 -3 -38 -20 -46 -31 -74 -39
-61 -18 4 6 3 8 -3 5 -6 -4 -9 -17 -8 -29 1 -13 -5 -34 -13 -47 -13 -21 -13
-23 1 -18 14 5 15 2 8 -32 -1 -2 -7 2 -15 8 -16 13 -42 6 -50 -15 -3 -8 -11
-14 -17 -14 -8 0 -7 5 2 18 11 14 11 15 -1 5 -17 -16 -24 -53 -9 -53 5 0 7 5
4 10 -3 6 -1 10 4 10 15 0 14 -15 -3 -29 -11 -9 -15 -9 -18 0 -6 19 -92 -26
-147 -77 -25 -24 -47 -39 -49 -34 -3 8 -66 -48 -144 -127 -5 -5 -31 -37 -60
-73 -29 -36 -60 -70 -69 -77 -27 -20 -81 -73 -75 -73 3 0 -10 -16 -30 -36 -19
-20 -33 -43 -30 -50 3 -8 0 -11 -9 -7 -9 3 -18 -3 -22 -13 -4 -10 -20 -31 -36
-45 -22 -20 -30 -37 -31 -66 0 -21 -5 -44 -9 -50 -5 -7 -5 -17 -2 -23 3 -5 0
-20 -7 -32 -12 -22 -19 -68 -10 -68 2 0 17 11 34 25 31 26 54 34 42 13 -4 -6
-3 -8 4 -4 5 3 12 3 15 -1 2 -5 3 -3 1 3 -3 15 24 54 37 54 6 0 29 16 52 35
44 38 61 40 63 8 1 -26 -12 -42 -64 -76 -24 -16 -41 -31 -38 -34 3 -3 17 4 32
16 29 23 44 27 44 12 0 -5 -9 -13 -20 -16 -11 -4 -18 -10 -15 -15 3 -5 -1 -11
-7 -14 -10 -5 -10 -7 0 -12 6 -3 12 -10 12 -15 0 -6 -7 -6 -18 0 -11 6 -24 6
-36 -1 -17 -9 -18 -8 -13 13 6 23 5 22 -18 -5 -13 -16 -21 -35 -18 -42 3 -8
-5 -16 -21 -20 -14 -3 -26 -10 -26 -15 0 -5 -6 -9 -12 -9 -7 0 -1 11 12 24 14
13 27 22 30 20 3 -1 6 6 6 16 0 17 -2 17 -23 1 -12 -9 -30 -31 -40 -48 -10
-18 -23 -33 -30 -33 -7 0 -13 -5 -13 -11 0 -5 6 -7 13 -3 6 4 4 -2 -5 -13 -10
-11 -18 -26 -18 -34 0 -8 -13 -29 -29 -47 -31 -33 -29 -42 5 -17 30 23 35 18
16 -19 -18 -37 -44 -50 -61 -33 -7 7 -14 7 -24 -1 -8 -7 -17 -9 -20 -5 -11 10
-8 33 4 30 6 -1 18 17 28 41 9 24 22 47 28 50 6 4 14 18 18 32 7 25 7 25 -10
5 -16 -19 -16 -18 0 8 22 38 15 42 -29 17 -21 -11 -41 -18 -46 -15 -11 7 -23
-24 -23 -60 1 -16 -7 -39 -16 -49 -9 -11 -10 -16 -3 -12 17 10 15 -9 -3 -24
-9 -8 -15 -30 -15 -56 0 -24 -4 -44 -9 -44 -8 0 -5 -41 6 -70 13 -32 -18 -107
-38 -94 -6 3 -27 3 -49 -1 -33 -6 -39 -10 -36 -28 2 -12 -6 -32 -17 -43 -28
-29 -57 -121 -50 -159 3 -21 2 -26 -5 -17 -7 11 -12 6 -21 -19 -6 -18 -14 -29
-17 -26 -7 6 37 159 60 212 8 17 17 41 21 55 6 22 5 23 -8 10 -8 -8 -26 -54
-41 -102 -15 -49 -32 -88 -37 -88 -4 0 -6 8 -3 18 5 16 5 16 -5 0 -6 -9 -12
-28 -13 -42 -1 -14 -6 -26 -10 -26 -4 0 -5 -6 -2 -14 3 -8 1 -17 -5 -20 -13
-9 -34 -80 -37 -126 -1 -19 -5 -78 -9 -130 -4 -58 -3 -90 3 -82 7 10 11 10 22
-3 11 -13 11 -21 2 -36 -8 -13 -9 -19 -2 -19 7 0 5 -9 -4 -21 -8 -12 -12 -27
-10 -34 3 -7 0 -16 -7 -21 -9 -5 -10 -2 -6 9 3 10 2 17 -3 17 -10 0 -6 -84 6
-114 5 -13 2 -23 -9 -31 -15 -11 -15 -14 -3 -25 22 -17 39 -2 33 29 -6 29 12
91 26 91 5 0 6 -7 3 -16 -4 -9 -2 -22 3 -28 7 -8 5 -21 -4 -39 -8 -15 -11 -27
-8 -27 3 0 -2 -9 -11 -19 -11 -12 -15 -25 -10 -33 4 -7 -2 -4 -14 6 -26 23
-29 14 -5 -18 l17 -23 18 21 c17 21 17 20 18 -21 0 -24 -4 -43 -10 -43 -5 0
-10 -6 -10 -14 0 -7 -9 -25 -21 -40 -21 -27 -11 -38 11 -11 7 8 18 15 25 15 8
0 11 8 8 23 -4 18 -3 19 7 7 9 -13 10 -11 8 7 -3 24 38 86 53 78 14 -9 11 -25
-5 -25 -7 0 -20 -7 -27 -16 -12 -15 -11 -16 8 -10 13 4 24 2 29 -5 5 -9 2 -10
-9 -6 -20 7 -21 3 -6 -25 10 -18 9 -20 -5 -15 -10 4 -16 1 -16 -8 0 -8 -4 -15
-10 -15 -5 0 -10 -9 -10 -20 0 -11 -4 -20 -9 -20 -16 0 -33 -57 -25 -82 4 -13
7 -28 6 -35 -2 -6 2 -14 8 -18 6 -3 10 3 10 15 0 12 4 18 10 15 5 -3 10 -17
10 -30 0 -23 24 -40 41 -29 15 9 10 -23 -5 -35 -9 -8 -16 -8 -20 -2 -10 16
-36 1 -36 -21 0 -15 -5 -18 -16 -14 -14 6 -15 4 -4 -10 12 -13 11 -17 -1 -24
-15 -10 -16 -13 -18 -57 -1 -18 -4 -23 -9 -16 -16 25 -42 -24 -42 -77 0 -27
-5 -52 -10 -55 -9 -6 -15 22 -11 53 1 6 -3 12 -9 12 -6 0 -8 5 -5 10 4 6 1 17
-5 25 -12 14 -10 44 6 94 5 17 4 22 -4 17 -7 -4 -12 -1 -12 6 0 9 -3 9 -10 -2
-6 -8 -7 -27 -4 -42 3 -15 1 -35 -4 -45 -6 -10 -7 -25 -2 -33 12 -23 20 -131
9 -125 -5 4 -9 -3 -9 -14 0 -21 18 -24 33 -6 5 6 6 2 3 -9 -4 -11 -1 -23 6
-27 10 -7 10 -11 0 -21 -9 -9 -12 -9 -12 4 0 9 -9 18 -19 21 -15 3 -18 1 -14
-11 5 -11 3 -13 -6 -7 -8 4 -11 22 -9 45 2 21 0 36 -4 34 -13 -8 -8 -77 7
-104 16 -28 21 -70 6 -54 -5 5 -12 18 -15 29 -3 11 -2 -7 1 -40 4 -33 6 -84 5
-112 -1 -29 3 -53 8 -53 6 0 10 -7 10 -16 0 -8 -4 -13 -9 -10 -15 10 21 -138
40 -163 11 -13 19 -33 19 -45 0 -12 9 -39 21 -60 22 -42 17 -63 -8 -31 -16 20
-16 20 -9 0 4 -11 10 -32 13 -47 3 -15 9 -25 14 -22 5 3 6 -2 3 -10 -6 -15 36
-156 61 -206 7 -14 20 -50 30 -80 10 -30 42 -109 72 -175 328 -730 975 -1366
1742 -1710 1339 -601 2902 -325 3960 699 872 845 1253 2093 1005 3291 -142
683 -476 1299 -973 1795 -217 217 -421 377 -676 531 -118 71 -401 214 -480
242 -22 8 -47 17 -56 21 -10 4 -19 2 -22 -7 -4 -11 0 -13 16 -9 20 5 20 4 8
-11 -12 -15 -11 -17 2 -17 9 0 20 -8 26 -17 5 -10 18 -18 28 -18 10 0 55 -25
101 -55 64 -43 79 -56 65 -61 -17 -6 -17 -7 1 -15 12 -4 21 -3 23 3 4 12 53
-6 53 -19 0 -4 8 -5 18 -2 14 5 14 4 2 -4 -8 -6 -19 -8 -24 -4 -6 3 -22 7 -36
8 -14 1 -35 6 -48 9 -18 6 -21 4 -16 -9 5 -12 2 -15 -10 -10 -17 6 -21 -5 -8
-22 4 -5 -1 -1 -10 9 -10 11 -16 23 -13 27 4 6 -16 20 -29 20 -1 0 0 -17 2
-37 l5 -38 -22 19 c-17 15 -19 22 -9 29 10 7 9 8 -2 4 -8 -2 -23 6 -32 18 -16
22 -16 23 -1 30 10 3 14 3 10 -1 -7 -8 10 -34 23 -34 18 0 -4 36 -33 55 -22
14 -32 28 -32 45 0 17 -11 32 -35 48 -19 13 -39 33 -43 45 -9 23 -55 66 -72
66 -5 1 -3 -4 5 -10 12 -8 11 -9 -5 -6 -11 2 -19 8 -18 14 1 6 -6 9 -16 6 -10
-3 -22 0 -25 6 -5 7 -15 7 -32 1 -32 -12 -43 -13 -25 -1 12 8 8 11 -15 16 -16
4 -45 13 -64 20 -36 15 -217 55 -245 55 -10 0 -13 -5 -9 -12 5 -9 2 -8 -9 1
-10 8 -32 15 -50 17 -17 2 -39 5 -47 7 -77 19 -260 29 -281 16z m346 -69 c3
-5 1 -10 -4 -10 -6 0 -11 5 -11 10 0 6 2 10 4 10 3 0 8 -4 11 -10z m62 4 c-3
-3 -12 -4 -19 -1 -8 3 -5 6 6 6 11 1 17 -2 13 -5z m-1092 -44 c-3 -5 -10 -10
-16 -10 -5 0 -9 5 -9 10 0 6 7 10 16 10 8 0 12 -4 9 -10z m730 -10 c-3 -5 -16
-10 -28 -9 -20 1 -20 2 3 9 14 4 26 8 28 9 2 1 0 -3 -3 -9z m465 -14 c0 -2
-11 -1 -25 2 -14 2 -22 8 -19 13 4 8 44 -6 44 -15z m113 -13 c-3 -7 -9 -10
-14 -7 -14 8 -11 21 5 21 8 0 12 -6 9 -14z m-214 -7 c10 -12 8 -13 -8 -9 -12
3 -21 9 -21 14 0 14 16 11 29 -5z m275 -21 c17 -13 18 -15 3 -15 -9 0 -17 4
-17 9 0 5 -8 12 -17 14 -13 3 -14 5 -3 6 8 0 24 -6 34 -14z m-1294 -7 c15 -10
27 -10 50 -1 20 7 30 8 30 1 0 -6 9 -8 20 -5 11 3 20 1 20 -5 0 -5 -10 -8 -22
-7 -13 1 -36 -1 -51 -6 -30 -8 -77 7 -77 25 0 13 6 13 30 -2z m-69 -7 c6 9 9
10 9 2 0 -7 7 -10 15 -7 8 4 15 1 15 -5 0 -18 -56 -13 -71 7 -13 16 -12 16 4
3 16 -13 20 -13 28 0z m-51 -28 c0 -6 8 -12 18 -12 9 -1 24 -1 32 -2 8 0 32 3
53 7 33 6 37 5 30 -11 -5 -15 -3 -17 11 -12 38 15 64 18 69 10 3 -5 -28 -15
-68 -22 -41 -7 -77 -17 -81 -22 -3 -6 -12 -8 -20 -5 -8 3 -11 0 -8 -8 3 -8 -4
-16 -16 -19 -17 -4 -19 -3 -9 9 14 17 -2 19 -19 2 -8 -8 -15 -8 -25 0 -11 9
-23 9 -50 -3 -48 -20 -55 -19 -29 5 12 11 26 20 32 20 5 0 10 7 10 15 0 9 10
20 23 25 22 10 -17 8 -113 -6 -34 -5 -34 -5 -15 11 11 9 34 15 50 13 17 -1 29
2 28 7 -1 6 21 10 48 10 31 0 49 -4 49 -12z m516 5 c4 -5 -9 -8 -29 -8 -20 0
-39 -5 -43 -11 -3 -6 -15 -9 -25 -6 -11 3 -19 1 -19 -4 0 -5 -4 -9 -10 -9 -26
0 -6 19 33 32 47 15 81 17 93 6z m1014 -13 c-10 -12 -10 -15 4 -15 27 0 18
-18 -11 -23 -16 -3 -8 -4 17 -2 30 1 53 -4 70 -15 14 -10 42 -25 63 -33 35
-15 56 -41 44 -53 -3 -4 -34 3 -69 15 -35 11 -77 22 -95 24 -17 2 -40 10 -50
17 -15 12 -16 12 -5 0 16 -19 15 -31 -2 -24 -8 3 -16 13 -19 23 -2 9 -19 25
-38 35 l-34 17 34 -7 c23 -4 31 -3 27 5 -4 6 0 11 8 11 9 0 21 9 28 20 7 11
19 20 27 20 11 0 11 -3 1 -15z m201 -2 c13 -16 12 -17 -3 -4 -10 7 -18 15 -18
17 0 8 8 3 21 -13z m-944 -7 c0 -7 -10 -13 -23 -13 -18 0 -20 2 -11 13 16 17
34 18 34 0z m43 10 c0 -11 -19 -15 -25 -6 -3 5 1 10 9 10 9 0 16 -2 16 -4z
m-556 -17 c3 -3 -6 -6 -20 -7 -14 -1 -23 2 -20 7 6 9 31 9 40 0z m76 7 c0 -3
-13 -11 -30 -20 -23 -11 -30 -11 -30 -2 0 7 3 16 7 19 7 8 53 10 53 3z m-637
-43 c-7 -3 -13 -11 -13 -18 0 -8 -8 -20 -18 -27 -26 -18 -37 -39 -18 -32 9 3
16 11 16 16 0 6 11 7 26 4 15 -4 32 -2 40 5 7 6 21 8 30 5 20 -8 15 -15 -16
-21 -13 -3 -26 -9 -30 -15 -4 -6 -15 -8 -25 -4 -12 5 -16 4 -11 -4 3 -6 1 -14
-5 -18 -8 -5 -9 -3 -4 6 6 10 1 11 -21 6 -16 -4 -31 -11 -34 -16 -3 -5 -20 -7
-38 -6 -24 2 -36 -4 -48 -22 -9 -13 -18 -21 -21 -18 -3 3 0 12 6 20 11 12 7
14 -26 13 -21 -1 -41 -6 -45 -12 -9 -13 -22 1 -13 14 3 6 13 11 21 11 8 0 23
8 34 18 19 17 19 18 0 20 -43 4 -49 6 -44 14 3 5 14 6 25 3 10 -4 33 -7 51 -7
l31 -1 -21 -18 c-30 -24 -28 -31 5 -14 14 8 38 12 52 11 14 -2 18 -1 9 1 -29
7 -21 20 22 39 22 10 42 26 45 35 3 10 14 19 23 22 20 4 32 -4 15 -10z m1732
-22 c16 -19 16 -20 -2 -18 -11 0 -20 9 -20 19 -2 23 0 22 22 -1z m-1315 -1 c0
-5 -5 -10 -11 -10 -5 0 -7 5 -4 10 3 6 8 10 11 10 2 0 4 -4 4 -10z m-45 -10
c-3 -5 -11 -10 -16 -10 -6 0 -7 5 -4 10 3 6 11 10 16 10 6 0 7 -4 4 -10z
m-235 -10 c0 -5 -7 -10 -15 -10 -8 0 -15 5 -15 10 0 6 7 10 15 10 8 0 15 -4
15 -10z m1605 -28 c-3 -3 -11 0 -18 7 -9 10 -8 11 6 5 10 -3 15 -9 12 -12z
m-368 -32 c-1 -13 -8 -20 -21 -20 -18 0 -19 1 -1 20 10 11 19 20 21 20 1 0 2
-9 1 -20z m-1247 0 c0 -5 -4 -10 -10 -10 -5 0 -10 5 -10 10 0 6 5 10 10 10 6
0 10 -4 10 -10z m930 -4 c0 -3 -4 -8 -10 -11 -5 -3 -10 -1 -10 4 0 6 5 11 10
11 6 0 10 -2 10 -4z m825 -33 c4 -14 2 -23 -4 -23 -6 0 -11 6 -11 14 0 8 -3
23 -6 33 -5 12 -4 15 3 8 6 -5 14 -20 18 -32z m-1745 8 c0 -3 -9 -12 -21 -19
-13 -8 -18 -9 -14 -2 4 6 -1 17 -11 24 -15 11 -13 12 14 8 18 -2 32 -7 32 -11z
m1902 -8 c27 -25 39 -51 18 -38 -5 3 -12 -6 -16 -20 -5 -20 -9 -24 -18 -14 -8
8 -8 13 2 16 6 3 10 9 6 14 -3 5 -18 2 -33 -6 -28 -14 -29 -14 -33 15 -5 31 9
39 29 19 7 -7 19 -9 29 -5 17 7 11 21 -8 21 -6 0 -13 6 -15 13 -7 20 9 14 39
-15z m-1482 1 c0 -2 -7 -4 -15 -4 -8 0 -15 4 -15 10 0 5 7 7 15 4 8 -4 15 -8
15 -10z m765 -3 c-3 -6 -18 -10 -33 -10 -21 1 -22 2 -7 6 11 3 24 9 29 14 12
11 20 4 11 -10z m605 0 c0 -10 -8 -25 -17 -32 -15 -12 -16 -12 -8 1 5 8 8 23
7 33 -2 9 2 17 7 17 6 0 11 -8 11 -19z m-710 -1 c-8 -5 -22 -10 -30 -10 -13 0
-13 1 0 10 8 5 22 10 30 10 13 0 13 -1 0 -10z m-1455 -10 c-10 -16 21 -41 42
-34 17 5 17 5 0 -9 -10 -8 -15 -21 -11 -31 4 -11 1 -16 -10 -16 -12 0 -15 7
-12 23 3 16 -3 29 -15 37 -13 10 -15 17 -7 27 12 15 22 17 13 3z m2462 -6 c-3
-3 -12 -4 -19 -1 -8 3 -5 6 6 6 11 1 17 -2 13 -5z m-3097 -49 c-13 -14 -25
-23 -28 -21 -5 6 31 44 42 45 5 1 -1 -10 -14 -24z m2815 7 c-3 -3 -15 -7 -28
-9 -21 -4 -21 -3 -2 11 18 13 44 12 30 -2z m-2015 -21 c0 -11 -84 -51 -105
-51 -16 0 -16 3 6 26 13 14 33 30 44 34 21 8 55 2 55 -9z m455 9 c-3 -5 -12
-10 -18 -10 -7 0 -6 4 3 10 19 12 23 12 15 0z m1485 -10 c0 -5 -8 -10 -17 -10
-15 0 -16 2 -3 10 19 12 20 12 20 0z m-2465 -10 c-3 -5 -10 -10 -16 -10 -5 0
-9 5 -9 10 0 6 7 10 16 10 8 0 12 -4 9 -10z m85 -7 c22 -7 -40 -31 -64 -25
-18 5 -18 6 -2 18 13 9 14 13 4 18 -15 6 39 -3 62 -11z m-190 -3 c0 -5 -8 -10
-17 -10 -15 0 -16 2 -3 10 19 12 20 12 20 0z m504 -40 c4 -5 -1 -11 -12 -14
-22 -7 -36 -42 -20 -52 5 -3 14 -2 20 4 8 8 15 6 25 -4 8 -8 19 -11 25 -8 6 4
8 -2 6 -12 -3 -19 35 -64 54 -64 16 0 3 -25 -13 -25 -19 -1 -62 -25 -55 -32 8
-8 -20 -33 -36 -32 -9 0 -9 2 -1 5 7 3 9 12 6 20 -3 9 5 18 23 26 l29 12 -25
3 c-51 8 -55 12 -32 34 26 23 28 31 7 23 -8 -4 -15 -10 -15 -15 0 -4 -6 -6
-14 -3 -15 6 -30 -22 -16 -31 14 -8 -21 -44 -36 -38 -8 3 -14 9 -14 15 0 5 4
7 8 4 19 -11 33 11 23 36 -12 31 -55 40 -108 22 -42 -15 -57 -9 -30 10 9 7 17
17 17 21 0 13 51 70 83 91 31 21 79 23 101 4z m-844 0 c0 -5 -5 -10 -11 -10
-5 0 -7 5 -4 10 3 6 8 10 11 10 2 0 4 -4 4 -10z m3405 -10 c3 -5 1 -10 -4 -10
-6 0 -11 5 -11 10 0 6 2 10 4 10 3 0 8 -4 11 -10z m-3182 -14 c6 -15 -49 -76
-67 -76 -6 0 3 13 19 28 17 15 29 35 27 45 -4 21 14 23 21 3z m879 -30 c10
-19 10 -20 -6 -7 -9 8 -22 24 -28 35 -10 19 -10 20 6 7 9 -8 22 -24 28 -35z
m-725 28 c-3 -3 -12 -4 -19 -1 -8 3 -5 6 6 6 11 1 17 -2 13 -5z m33 -8 c0 -17
-62 -66 -84 -66 -30 0 -31 3 -10 35 8 13 22 21 29 19 8 -3 22 -1 32 5 19 11
33 14 33 7z m465 -14 c-3 -3 -11 0 -18 7 -9 10 -8 11 6 5 10 -3 15 -9 12 -12z
m-966 -5 c-2 -1 -13 -9 -24 -17 -19 -14 -19 -14 -6 3 7 9 18 17 24 17 6 0 8
-1 6 -3z m1106 -7 c3 -5 1 -10 -4 -10 -6 0 -11 5 -11 10 0 6 2 10 4 10 3 0 8
-4 11 -10z m-568 -17 c2 -5 -7 -9 -19 -9 -12 1 -23 -4 -23 -11 0 -6 -4 -15 -8
-19 -5 -5 -6 5 -3 21 2 17 5 30 5 31 6 5 46 -5 48 -13z m-357 -3 c0 -5 -4 -10
-10 -10 -5 0 -10 5 -10 10 0 6 5 10 10 10 6 0 10 -4 10 -10z m273 -44 c9 3 17
2 17 -4 0 -14 -28 -23 -35 -11 -4 5 -11 7 -16 4 -10 -7 -12 8 -2 18 4 4 10 3
13 -3 4 -6 14 -8 23 -4z m2681 -23 c-17 -27 -34 -27 -34 0 0 27 19 40 35 25 6
-5 6 -14 -1 -25z m-1923 18 c-7 -5 -11 -13 -7 -19 4 -6 -2 -8 -15 -5 -21 6
-21 7 -4 20 11 7 24 13 29 13 6 0 5 -4 -3 -9z m-594 -23 c1 -10 -10 -27 -25
-38 -22 -18 -24 -23 -12 -30 13 -8 13 -10 -1 -10 -12 0 -16 -8 -15 -25 1 -29
5 -30 32 -10 24 19 31 18 38 -1 3 -8 2 -12 -4 -9 -5 3 -24 -4 -42 -15 -18 -11
-40 -20 -48 -19 -10 0 -11 2 -2 6 6 2 12 9 12 14 0 6 -4 8 -9 5 -16 -11 -56
11 -70 38 -14 24 -13 28 14 56 30 31 48 39 39 17 -3 -8 4 -12 19 -12 29 2 49
14 41 26 -3 5 -10 7 -15 4 -5 -4 -9 -2 -9 3 0 25 55 26 57 0z m208 12 c3 -5
-1 -10 -9 -10 -8 0 -18 5 -21 10 -3 6 1 10 9 10 8 0 18 -4 21 -10z m2445 0 c0
-5 -2 -10 -4 -10 -3 0 -8 5 -11 10 -3 6 -1 10 4 10 6 0 11 -4 11 -10z m-2507
-12 c-13 -6 -23 -15 -23 -20 0 -12 14 -10 28 4 6 6 14 9 18 6 3 -4 -3 -11 -14
-17 -20 -10 -82 5 -82 21 0 7 35 14 75 16 18 1 18 0 -2 -10z m2477 -2 c0 -8
-10 -13 -24 -13 -20 0 -22 2 -13 13 16 17 37 18 37 0z m-2780 -31 c-7 -8 -18
-15 -24 -14 -7 0 -6 2 2 6 6 2 12 9 12 14 0 6 -7 6 -18 0 -11 -6 -24 -6 -33 0
-15 9 -15 9 18 13 13 2 26 6 30 9 14 14 26 -12 13 -28z m641 2 c-10 -9 -11 -8
-5 6 3 10 9 15 12 12 3 -3 0 -11 -7 -18z m2107 -21 c-1 -14 -5 -23 -9 -20 -7
4 0 44 7 44 2 0 3 -11 2 -24z m-2413 4 c4 -6 1 -17 -5 -25 -9 -11 -15 -12 -25
-2 -9 8 -10 16 -3 25 13 15 25 15 33 2z m375 6 c0 -3 -4 -8 -10 -11 -5 -3 -10
-1 -10 4 0 6 5 11 10 11 6 0 10 -2 10 -4z m1800 0 c0 -11 -19 -15 -25 -6 -3 5
1 10 9 10 9 0 16 -2 16 -4z m160 -11 c-7 -9 -15 -13 -17 -11 -7 7 7 26 19 26
6 0 6 -6 -2 -15z m-240 -5 c0 -5 -2 -10 -4 -10 -3 0 -8 5 -11 10 -3 6 -1 10 4
10 6 0 11 -4 11 -10z m-3110 -4 c0 -3 -4 -8 -10 -11 -5 -3 -10 -1 -10 4 0 6 5
11 10 11 6 0 10 -2 10 -4z m3340 -24 c0 -5 -15 -16 -34 -25 -30 -14 -36 -14
-46 -1 -7 7 -11 14 -9 15 2 0 14 2 26 3 13 2 26 6 30 9 9 10 33 9 33 -1z m184
-7 c-4 -8 -8 -15 -10 -15 -2 0 -4 7 -4 15 0 8 4 15 10 15 5 0 7 -7 4 -15z
m-3374 -5 c0 -5 -4 -10 -10 -10 -5 0 -10 5 -10 10 0 6 5 10 10 10 6 0 10 -4
10 -10z m490 0 c0 -5 -5 -10 -11 -10 -5 0 -7 5 -4 10 3 6 8 10 11 10 2 0 4 -4
4 -10z m275 0 c-3 -5 -16 -10 -28 -9 -21 0 -21 1 -2 9 28 12 37 12 30 0z
m1935 -21 c0 -5 -4 -9 -10 -9 -5 0 -10 7 -10 16 0 8 5 12 10 9 6 -3 10 -10 10
-16z m365 -19 c4 -6 -7 -10 -27 -9 -31 1 -32 1 -8 9 14 4 26 8 27 9 1 1 5 -3
8 -9z m-2225 -10 c0 -5 -2 -10 -4 -10 -3 0 -8 5 -11 10 -3 6 -1 10 4 10 6 0
11 -4 11 -10z m1970 0 c0 -5 -4 -10 -10 -10 -5 0 -10 5 -10 10 0 6 5 10 10 10
6 0 10 -4 10 -10z m124 -14 c-3 -9 -10 -16 -15 -16 -6 0 -5 9 1 21 13 24 24
20 14 -5z m-254 -32 c0 -8 -4 -14 -10 -14 -5 0 -10 9 -10 21 0 11 5 17 10 14
6 -3 10 -13 10 -21z m260 -14 c0 -5 -5 -10 -11 -10 -5 0 -7 5 -4 10 3 6 8 10
11 10 2 0 4 -4 4 -10z m-2180 -10 c0 -5 -5 -10 -11 -10 -5 0 -7 5 -4 10 3 6 8
10 11 10 2 0 4 -4 4 -10z m36 -1 c3 -6 1 -15 -6 -19 -7 -4 -9 -13 -6 -19 4 -6
3 -11 -2 -11 -6 0 -12 7 -16 15 -3 8 -1 15 4 15 5 0 7 7 4 15 -7 17 11 21 22
4z m54 2 c0 -5 -7 -11 -15 -15 -15 -5 -20 5 -8 17 9 10 23 9 23 -2z m230 -1
c0 -5 -10 -10 -22 -9 -22 0 -22 1 -3 9 11 5 21 9 23 9 1 1 2 -3 2 -9z m-820
-10 c0 -5 -9 -14 -21 -20 -19 -11 -20 -10 -9 9 11 22 30 29 30 11z m2345 0
c-3 -5 -11 -10 -16 -10 -6 0 -7 5 -4 10 3 6 11 10 16 10 6 0 7 -4 4 -10z
m-1606 -37 c-13 -17 -12 -17 6 -2 29 23 51 29 85 23 25 -5 28 -9 20 -24 -6
-10 -6 -20 -1 -22 13 -5 24 -48 12 -48 -6 0 -11 -4 -11 -8 0 -12 60 -30 100
-30 33 0 34 0 10 10 l-25 10 23 9 c16 6 31 3 55 -11 17 -11 39 -20 48 -20 23
0 42 -26 35 -47 -6 -15 -8 -15 -16 -3 -5 8 -12 11 -16 7 -11 -10 2 -20 28 -21
17 -1 22 -7 22 -26 0 -21 -4 -25 -24 -22 -24 2 -24 2 -5 -9 11 -7 21 -13 23
-15 2 -1 -1 -11 -7 -23 -8 -14 -8 -22 0 -26 7 -5 6 -12 -4 -23 -8 -10 -13 -27
-12 -39 2 -25 -3 -27 -24 -14 -7 5 -10 14 -7 20 12 19 -13 12 -34 -9 -11 -11
-28 -20 -37 -19 -13 0 -11 3 7 10 29 12 40 27 39 54 0 19 -1 19 -11 -2 -16
-34 -46 -39 -73 -13 -24 23 -25 23 -51 4 -44 -31 -68 -43 -74 -37 -3 3 1 8 8
10 6 3 12 12 12 21 0 13 -2 14 -8 4 -6 -9 -12 -5 -21 14 -9 21 -14 24 -26 14
-8 -7 -13 -16 -10 -20 7 -11 -22 -33 -34 -26 -5 3 -12 0 -15 -6 -3 -7 -3 -3 0
10 6 24 4 25 -20 16 -9 -3 -13 -10 -10 -15 8 -13 -10 -11 -23 2 -15 15 -77 3
-94 -18 -13 -15 -11 -16 14 -9 40 10 35 -17 -8 -37 -19 -9 -35 -12 -35 -7 0 6
5 10 10 10 6 0 10 5 10 11 0 7 -12 10 -30 7 -16 -3 -30 -1 -30 4 0 4 4 8 10 8
5 0 25 16 45 36 30 29 39 33 51 23 12 -9 20 -9 39 1 25 13 34 40 14 40 -6 0
-23 9 -38 19 -19 14 -32 17 -42 10 -11 -7 -10 -10 9 -15 12 -4 22 -11 22 -16
0 -6 -7 -8 -15 -5 -8 4 -17 2 -20 -3 -4 -6 -14 -10 -23 -10 -9 0 -28 -12 -41
-25 -13 -14 -29 -25 -37 -25 -16 0 -19 -27 -3 -32 5 -2 7 -10 4 -18 -7 -18
-75 -54 -75 -40 0 6 5 10 12 10 6 0 9 2 6 5 -3 3 -25 1 -49 -4 -36 -8 -47 -7
-61 6 -17 16 -17 17 -1 36 18 19 17 20 -9 15 -20 -4 -28 -1 -28 8 0 8 -6 14
-12 15 -7 0 -2 4 10 10 13 5 28 7 33 3 5 -3 9 0 9 6 0 6 5 8 11 5 6 -4 19 2
29 13 19 20 19 21 -10 27 -35 8 -39 20 -10 28 11 3 20 1 20 -4 0 -5 7 -9 15
-9 8 0 15 -4 15 -10 0 -11 16 -6 78 21 23 11 42 24 42 31 0 9 3 9 12 0 17 -17
25 -15 31 8 4 18 2 20 -16 14 -12 -3 -40 -17 -62 -31 -25 -17 -40 -22 -43 -14
-2 6 -13 11 -25 11 -19 0 -20 2 -7 15 13 12 39 21 73 24 4 1 7 7 7 15 0 18 31
30 40 15 5 -7 10 -8 14 -1 3 6 2 13 -4 17 -6 4 -8 10 -5 15 3 4 -1 8 -8 7 -49
-2 -52 3 -17 33 42 35 55 38 39 8 -12 -22 -11 -22 8 -5 22 19 48 23 37 5 -7
-11 42 -7 77 7 9 3 23 0 31 -8 16 -16 46 -8 67 17 18 22 3 38 -36 39 -15 0
-22 2 -15 4 6 3 9 10 6 15 -4 6 1 17 11 24 24 18 32 10 14 -13z m2030 18 c11
-7 9 -10 -8 -16 -25 -8 -36 -2 -26 14 8 13 15 14 34 2z m-2434 -12 c19 -9 19
-9 -1 -5 -12 2 -27 0 -34 -4 -11 -7 2 -11 78 -26 37 -7 20 -15 -24 -11 -28 3
-77 -1 -109 -9 -33 -7 -60 -12 -62 -11 -1 2 3 14 10 27 22 44 92 63 142 39z
m2360 -9 c-3 -5 -12 -10 -18 -10 -7 0 -6 4 3 10 19 12 23 12 15 0z m-5 -107
c-12 -8 -20 -20 -17 -27 2 -6 -5 -19 -15 -28 -23 -23 -23 -4 1 36 10 17 25 49
32 71 l14 40 3 -39 c3 -30 -1 -41 -18 -53z m-3405 57 c3 -5 1 -10 -4 -10 -6 0
-11 5 -11 10 0 6 2 10 4 10 3 0 8 -4 11 -10z m3075 -40 c0 -5 -4 -10 -9 -10
-5 0 -18 -3 -28 -6 -16 -5 -16 -4 1 10 23 18 36 20 36 6z m498 -20 c-15 -24
-19 -21 -11 8 3 12 9 19 14 16 5 -3 3 -14 -3 -24z m-481 -2 c0 -7 -11 -14 -25
-15 -14 0 -28 -6 -31 -11 -4 -7 -12 -8 -21 -2 -11 7 -9 11 10 18 14 5 32 12
40 15 23 9 27 8 27 -5z m198 2 c3 -5 2 -10 -4 -10 -5 0 -13 5 -16 10 -3 6 -2
10 4 10 5 0 13 -4 16 -10z m-650 -7 c-11 -3 -22 -9 -25 -13 -3 -4 -11 -2 -18
6 -11 12 -7 14 25 13 22 -1 30 -3 18 -6z m782 -30 c-3 -10 -5 -4 -5 12 0 17 2
24 5 18 2 -7 2 -21 0 -30z m-2257 2 c-7 -8 -9 -15 -4 -16 5 0 -4 -5 -20 -10
-34 -9 -49 -3 -20 8 10 4 25 13 32 20 18 18 27 16 12 -2z m1810 -15 c-19 -13
-30 -13 -30 0 0 6 10 10 23 10 18 0 19 -2 7 -10z m-1905 -10 c3 -5 -1 -10 -9
-10 -9 0 -16 5 -16 10 0 6 4 10 9 10 6 0 13 -4 16 -10z m805 0 c0 -5 -4 -10
-9 -10 -6 0 -13 5 -16 10 -3 6 1 10 9 10 9 0 16 -4 16 -10z m1436 -75 c-3 -9
-10 -13 -16 -10 -5 3 -10 1 -10 -5 0 -17 29 -23 45 -10 9 7 18 10 22 7 3 -4
-2 -9 -11 -13 -9 -3 -16 -15 -16 -25 0 -10 -4 -19 -10 -19 -5 0 -7 7 -4 15 8
20 -5 19 -28 -2 -18 -16 -19 -16 -9 9 7 19 7 28 -1 30 -7 3 -3 13 11 27 24 24
37 22 27 -4z m220 -1 c-4 -9 -9 -15 -11 -12 -3 3 -3 13 1 22 4 9 9 15 11 12 3
-3 3 -13 -1 -22z m-276 -18 c0 -3 -4 -8 -10 -11 -5 -3 -10 -1 -10 4 0 6 5 11
10 11 6 0 10 -2 10 -4z m-2469 -33 c-12 -20 -14 -14 -5 12 4 9 9 14 11 11 3
-2 0 -13 -6 -23z m69 -25 c0 -5 -4 -8 -10 -8 -5 0 -10 10 -10 23 0 18 2 19 10
7 5 -8 10 -18 10 -22z m2389 2 c-13 -35 -21 -39 -15 -7 3 12 5 25 5 30 1 4 5
7 10 7 6 0 6 -12 0 -30z m-1389 0 c0 -5 -5 -10 -11 -10 -5 0 -7 5 -4 10 3 6 8
10 11 10 2 0 4 -4 4 -10z m-1100 -15 c0 -8 -2 -15 -4 -15 -2 0 -6 7 -10 15 -3
8 -1 15 4 15 6 0 10 -7 10 -15z m2414 -4 c-5 -5 -19 -12 -31 -16 -33 -9 -28
11 5 23 29 10 41 7 26 -7z m-3144 5 c0 -2 -8 -10 -17 -17 -16 -13 -17 -12 -4
4 13 16 21 21 21 13z m880 -40 c-7 -9 -17 -13 -22 -10 -5 3 -12 -3 -15 -15 -3
-12 -10 -21 -15 -21 -5 0 -6 5 -2 12 5 8 0 9 -17 4 -13 -4 -34 -9 -46 -11 -12
-2 -26 -6 -32 -9 -5 -4 -12 -2 -15 3 -6 9 44 31 71 31 8 0 31 11 51 25 38 26
67 20 42 -9z m480 24 c0 -5 -5 -10 -11 -10 -5 0 -7 5 -4 10 3 6 8 10 11 10 2
0 4 -4 4 -10z m455 0 c-3 -5 -11 -10 -16 -10 -6 0 -7 5 -4 10 3 6 11 10 16 10
6 0 7 -4 4 -10z m1065 1 c0 -6 -4 -13 -10 -16 -5 -3 -10 1 -10 9 0 9 5 16 10
16 6 0 10 -4 10 -9z m-2466 -20 c-10 -10 -21 -17 -23 -15 -6 6 20 34 32 34 6
0 2 -8 -9 -19z m366 3 c0 -8 -5 -12 -10 -9 -6 4 -8 11 -5 16 9 14 15 11 15 -7z
m190 -32 c0 -11 -12 -22 -31 -29 -17 -7 -28 -16 -25 -21 3 -5 -8 -9 -24 -8
-17 1 -30 5 -30 9 0 15 33 42 64 53 44 16 46 16 46 -4z m1450 8 c0 -5 -5 -10
-11 -10 -5 0 -7 5 -4 10 3 6 8 10 11 10 2 0 4 -4 4 -10z m330 -10 c0 -5 -2
-10 -4 -10 -3 0 -8 5 -11 10 -3 6 -1 10 4 10 6 0 11 -4 11 -10z m233 -10 c-3
-11 -7 -20 -9 -20 -2 0 -4 9 -4 20 0 11 4 20 9 20 5 0 7 -9 4 -20z m-2323 0
c0 -5 -4 -10 -9 -10 -6 0 -13 5 -16 10 -3 6 1 10 9 10 9 0 16 -4 16 -10z
m1657 -9 c3 -12 11 -17 19 -14 10 4 12 0 8 -11 -4 -11 -13 -14 -24 -11 -13 4
-20 -1 -25 -15 -9 -28 -27 -15 -19 14 4 17 0 25 -12 30 -16 6 -16 8 -4 16 25
16 52 11 57 -9z m456 -15 c-21 -28 -24 -28 -16 2 3 12 12 22 20 22 11 0 10 -5
-4 -24z m-1963 10 c0 -2 -7 -7 -16 -10 -8 -3 -12 -2 -9 4 6 10 25 14 25 6z
m-448 -37 c-18 -17 -36 -28 -40 -24 -8 7 47 55 63 55 6 0 -5 -14 -23 -31z
m644 20 c3 -6 0 -18 -9 -26 -13 -13 -14 -12 -14 11 0 27 11 34 23 15z m-39
-27 c-10 -10 -15 -22 -12 -25 3 -4 0 -3 -7 2 -12 11 6 41 25 41 5 0 3 -8 -6
-18z m-257 -3 c12 -9 11 -10 -8 -6 -15 4 -26 -1 -33 -15 -6 -11 -13 -17 -16
-14 -6 6 25 46 36 46 3 0 13 -5 21 -11z m40 1 c0 -5 -5 -10 -11 -10 -5 0 -7 5
-4 10 3 6 8 10 11 10 2 0 4 -4 4 -10z m1905 0 c-3 -5 -10 -10 -16 -10 -5 0 -9
5 -9 10 0 6 7 10 16 10 8 0 12 -4 9 -10z m-1920 -39 c-3 -6 3 -14 12 -20 16
-9 16 -12 3 -21 -22 -14 -34 -12 -21 4 19 23 -7 31 -30 10 -18 -16 -19 -16
-13 -1 3 9 10 17 16 17 5 0 6 5 3 10 -3 6 3 10 15 10 12 0 19 -4 15 -9z m-401
-32 c-10 -11 -19 -17 -22 -14 -3 3 -11 0 -17 -5 -9 -8 -14 -5 -18 9 -3 13 -1
18 8 15 7 -3 15 2 18 10 4 9 14 12 27 9 20 -5 20 -7 4 -24z m136 21 c0 -5 -5
-10 -11 -10 -5 0 -7 5 -4 10 3 6 8 10 11 10 2 0 4 -4 4 -10z m2570 -25 c-7 -8
-17 -15 -23 -15 -6 0 -2 7 9 15 25 19 30 19 14 0z m-3237 -25 c-7 -27 -23 -36
-34 -19 -9 15 7 39 26 39 8 0 11 -8 8 -20z m837 -10 c0 -5 -5 -10 -11 -10 -5
0 -7 5 -4 10 3 6 8 10 11 10 2 0 4 -4 4 -10z m280 6 c0 -3 -4 -8 -10 -11 -5
-3 -10 -1 -10 4 0 6 5 11 10 11 6 0 10 -2 10 -4z m-67 -41 c-22 -17 -30 -11
-13 10 7 8 17 12 22 9 5 -3 1 -12 -9 -19z m1357 17 c0 -4 -28 -23 -61 -41 -37
-20 -60 -28 -57 -20 3 8 14 15 25 17 11 2 31 14 44 28 22 23 49 32 49 16z
m-2480 -12 c0 -5 -5 -10 -11 -10 -5 0 -7 5 -4 10 3 6 8 10 11 10 2 0 4 -4 4
-10z m1090 -14 c0 -3 -4 -8 -10 -11 -5 -3 -10 -1 -10 4 0 6 5 11 10 11 6 0 10
-2 10 -4z m600 -11 c-7 -8 -17 -15 -22 -15 -6 0 -5 7 2 15 7 8 17 15 22 15 6
0 5 -7 -2 -15z m-920 -15 c0 -5 -5 -10 -11 -10 -5 0 -7 5 -4 10 3 6 8 10 11
10 2 0 4 -4 4 -10z m944 1 c7 -10 -43 -46 -51 -37 -7 7 26 46 38 46 4 0 10 -4
13 -9z m90 -3 c-3 -4 -12 -8 -20 -8 -8 0 -14 -4 -14 -10 0 -14 4 -13 50 11 23
12 43 19 46 16 12 -12 -76 -47 -101 -41 -14 3 -22 10 -19 15 3 5 0 9 -6 9 -6
0 -9 4 -6 9 3 5 21 9 40 8 19 0 33 -5 30 -9z m231 -17 c-3 -6 -16 -11 -28 -11
-21 0 -21 1 3 13 27 15 36 14 25 -2z m-61 -2 c-7 -13 -82 -15 -77 -3 2 6 22
11 43 10 21 0 36 -4 34 -7z m116 -9 c0 -5 -5 -10 -11 -10 -5 0 -7 5 -4 10 3 6
8 10 11 10 2 0 4 -4 4 -10z m-2206 -83 c-10 -20 -21 -34 -25 -31 -4 2 -14 -5
-23 -17 -8 -12 -19 -20 -25 -18 -6 2 10 28 35 57 26 29 48 51 51 49 2 -3 -4
-21 -13 -40z m126 -8 c0 -5 -4 -9 -10 -9 -5 0 -10 7 -10 16 0 8 5 12 10 9 6
-3 10 -10 10 -16z m615 2 c-3 -6 -13 -11 -21 -11 -8 0 -12 5 -9 10 4 6 11 8
16 5 5 -4 9 -1 9 6 0 7 3 10 6 6 3 -3 3 -10 -1 -16z m90 -1 c12 -19 -6 -31
-22 -14 -9 8 -24 13 -35 11 -10 -3 -16 -1 -12 4 7 12 61 11 69 -1z m-855 -80
c0 -5 -5 -10 -11 -10 -5 0 -7 5 -4 10 3 6 8 10 11 10 2 0 4 -4 4 -10z m-130
-30 c0 -5 -5 -10 -11 -10 -5 0 -7 5 -4 10 3 6 8 10 11 10 2 0 4 -4 4 -10z
m3925 -100 c-3 -5 -11 -10 -16 -10 -6 0 -7 5 -4 10 3 6 11 10 16 10 6 0 7 -4
4 -10z m515 0 c0 -5 -8 -10 -17 -10 -15 0 -16 2 -3 10 19 12 20 12 20 0z
m-4608 -42 c-7 -7 -12 -8 -12 -2 0 14 12 26 19 19 2 -3 -1 -11 -7 -17z m4068
-18 c0 -5 -5 -10 -11 -10 -5 0 -7 5 -4 10 3 6 8 10 11 10 2 0 4 -4 4 -10z
m-3370 -75 c-7 -8 -17 -15 -22 -15 -6 0 -5 7 2 15 7 8 17 15 22 15 6 0 5 -7
-2 -15z m-56 -131 c-7 -3 -10 -13 -7 -24 5 -18 -28 -46 -40 -34 -14 15 18 64
42 63 9 0 11 -3 5 -5z m266 -9 c-7 -8 -17 -15 -22 -15 -6 0 -5 7 2 15 7 8 17
15 22 15 6 0 5 -7 -2 -15z m-990 -44 c0 -5 -8 -19 -19 -32 -18 -22 -19 -22
-36 -5 -22 21 -6 37 28 28 14 -3 18 -1 13 6 -4 7 -2 12 3 12 6 0 11 -4 11 -9z
m1260 -1 c0 -5 -7 -10 -15 -10 -8 0 -15 5 -15 10 0 6 7 10 15 10 8 0 15 -4 15
-10z m-1250 -84 c0 -3 -4 -8 -10 -11 -5 -3 -10 -1 -10 4 0 6 5 11 10 11 6 0
10 -2 10 -4z m926 -18 c6 -20 -15 -48 -38 -48 -11 0 -10 28 2 51 14 25 27 24
36 -3z m-356 8 c0 -3 -4 -8 -10 -11 -5 -3 -10 -1 -10 4 0 6 5 11 10 11 6 0 10
-2 10 -4z m142 -28 c-7 -7 -12 -8 -12 -2 0 14 12 26 19 19 2 -3 -1 -11 -7 -17z
m652 -28 c-10 -4 -21 -6 -24 -3 -8 7 24 22 34 16 5 -4 1 -10 -10 -13z m-12
-42 c-7 -7 -12 -8 -12 -2 0 14 12 26 19 19 2 -3 -1 -11 -7 -17z m403 12 c-3
-5 -11 -10 -16 -10 -6 0 -7 5 -4 10 3 6 11 10 16 10 6 0 7 -4 4 -10z m-422
-80 c-21 -20 -30 -36 -26 -47 4 -10 2 -14 -4 -10 -6 4 -14 0 -17 -9 -8 -22 -8
-44 2 -43 30 5 50 -24 32 -46 -8 -9 -5 -12 12 -10 42 4 43 6 23 17 -19 11 -19
11 0 19 38 14 65 10 65 -10 0 -10 8 -22 17 -25 15 -6 15 -8 3 -16 -20 -13 -31
-12 -27 1 1 6 -4 14 -10 16 -7 3 -13 -2 -13 -11 0 -10 -6 -13 -16 -9 -12 4
-15 2 -12 -8 2 -7 -6 -24 -18 -36 l-23 -23 -33 30 c-34 32 -55 34 -50 6 2 -9
-4 -16 -13 -16 -17 0 -21 -36 -4 -42 17 -6 0 -33 -33 -53 -27 -15 -30 -16 -25
-2 4 11 2 14 -9 10 -11 -4 -14 4 -14 31 0 20 5 36 11 36 6 0 8 -9 4 -20 -4
-12 -2 -20 5 -20 7 0 9 13 5 38 -3 20 -8 53 -11 74 -5 27 -1 41 13 56 10 11
26 32 36 46 21 30 49 36 41 9 -3 -10 8 -2 25 17 17 19 31 41 31 48 0 6 7 12
15 12 8 0 15 5 15 10 0 6 8 10 18 10 13 0 10 -7 -15 -30z m-43 15 c0 -10 -40
-49 -45 -44 -6 7 24 49 36 49 5 0 9 -2 9 -5z m-344 -32 c-10 -10 -19 5 -10 18
6 11 8 11 12 0 2 -7 1 -15 -2 -18z m-966 -23 c0 -5 -2 -10 -4 -10 -3 0 -8 5
-11 10 -3 6 -1 10 4 10 6 0 11 -4 11 -10z m856 -56 c-19 -18 -21 -11 -4 19 7
14 13 17 15 10 3 -7 -3 -20 -11 -29z m298 -42 c-3 -33 -28 -49 -32 -21 -5 28
3 46 20 46 10 0 14 -9 12 -25z m476 17 c0 -14 -24 -23 -28 -11 -2 7 -8 10 -13
6 -5 -3 -9 -1 -9 4 0 5 11 10 25 10 14 0 25 -4 25 -9z m-1507 -29 c20 0 20 0
1 -14 -16 -13 -19 -13 -22 0 -2 8 -7 14 -12 14 -5 0 -6 8 -2 18 6 16 7 16 10
0 2 -11 12 -18 25 -18z m-213 6 c0 -3 -4 -8 -10 -11 -5 -3 -10 -1 -10 4 0 6 5
11 10 11 6 0 10 -2 10 -4z m1580 -6 c0 -5 -4 -10 -10 -10 -5 0 -10 5 -10 10 0
6 5 10 10 10 6 0 10 -4 10 -10z m243 -1 c-6 -6 -9 -17 -7 -24 3 -7 -5 -15 -16
-18 -12 -3 -19 -10 -16 -16 4 -6 -12 -13 -39 -16 -30 -5 -45 -12 -45 -22 0
-25 -24 -42 -44 -31 -16 9 -16 12 5 34 12 13 40 29 60 34 21 6 50 24 66 40 15
17 32 30 37 30 6 0 5 -5 -1 -11z m1322 1 c-3 -5 -11 -10 -16 -10 -6 0 -7 5 -4
10 3 6 11 10 16 10 6 0 7 -4 4 -10z m-2295 -31 c0 -6 -4 -7 -10 -4 -5 3 -10
11 -10 16 0 6 5 7 10 4 6 -3 10 -11 10 -16z m67 -11 c-3 -8 -6 -5 -6 6 -1 11
2 17 5 13 3 -3 4 -12 1 -19z m-947 -12 c0 -3 -4 -8 -10 -11 -5 -3 -10 -1 -10
4 0 6 5 11 10 11 6 0 10 -2 10 -4z m921 -23 c-8 -15 -10 -15 -11 -2 0 17 10
32 18 25 2 -3 -1 -13 -7 -23z m355 -8 c-6 -23 -8 -24 -21 -11 -19 19 -19 26 0
26 8 0 15 5 15 12 0 6 3 9 6 5 4 -3 3 -18 0 -32z m-226 21 c0 -3 -4 -8 -10
-11 -5 -3 -10 -1 -10 4 0 6 5 11 10 11 6 0 10 -2 10 -4z m156 -21 c15 -14 25
-25 23 -26 -2 0 -13 -2 -23 -4 -28 -5 -42 -33 -37 -72 3 -19 -16 -16 -23 3
-11 28 -6 45 19 69 l26 23 -23 16 c-18 13 -19 16 -6 16 9 0 29 -11 44 -25z
m-1010 -22 c-10 -10 -19 5 -10 18 6 11 8 11 12 0 2 -7 1 -15 -2 -18z m114 7
c0 -5 -4 -10 -10 -10 -5 0 -10 5 -10 10 0 6 5 10 10 10 6 0 10 -4 10 -10z
m-64 -29 c-9 -8 -18 -12 -22 -9 -9 10 3 25 21 25 14 0 14 -2 1 -16z m571 -36
c-32 -31 -39 -44 -36 -70 0 -3 -11 -20 -25 -36 -15 -17 -26 -36 -26 -43 0 -7
-12 -26 -26 -42 -15 -16 -23 -24 -20 -17 3 6 2 14 -4 18 -6 4 -7 11 -4 17 4 7
2 8 -5 4 -14 -9 -6 -43 18 -70 15 -18 15 -18 -8 -6 -19 10 -22 10 -16 -2 17
-29 49 -58 65 -58 24 0 31 -10 19 -31 -9 -17 -7 -18 15 -8 16 8 23 18 21 30
-2 10 0 21 6 24 5 4 9 1 9 -5 0 -6 4 -9 9 -6 5 3 12 -1 15 -10 4 -12 2 -15 -9
-10 -8 3 -14 2 -13 -2 4 -13 -23 -53 -32 -47 -4 3 -16 2 -25 -1 -12 -5 -14 -9
-4 -15 7 -4 23 -3 36 2 37 14 74 11 95 -8 10 -9 18 -11 18 -5 0 6 -5 12 -11
14 -13 4 9 78 23 78 4 0 8 5 8 11 0 5 -4 8 -8 5 -5 -3 -9 1 -9 9 0 8 4 15 9
15 5 0 8 8 7 18 -3 30 1 42 12 42 5 0 7 -4 4 -10 -3 -5 -1 -10 5 -10 6 0 8 -5
4 -12 -7 -11 -9 -34 -5 -70 1 -9 6 -7 14 4 9 11 18 14 27 8 8 -5 18 -6 24 -3
5 4 7 -1 3 -10 -4 -10 -2 -17 4 -17 7 0 10 14 7 34 -3 25 0 32 10 29 10 -4 11
1 6 21 -4 17 -2 26 5 26 7 0 11 -6 10 -12 -4 -23 12 -47 27 -41 9 3 14 -2 15
-18 0 -13 3 -18 6 -11 2 6 12 12 20 12 11 0 14 7 9 25 -4 15 -2 25 4 25 6 0 9
-3 7 -7 -8 -12 61 -7 76 5 8 7 17 9 20 6 9 -10 27 43 30 89 3 38 27 67 27 32
0 -9 5 -13 10 -10 17 10 11 25 -12 36 -22 9 -22 9 3 6 18 -3 26 1 25 11 0 8 5
17 11 19 9 3 12 -8 9 -40 -2 -35 0 -44 11 -40 7 3 21 -1 30 -8 10 -8 14 -9 10
-2 -4 6 -3 15 3 18 8 5 7 12 -2 23 -11 14 -10 15 5 9 10 -4 27 -2 38 4 18 9
19 8 12 -8 -8 -16 -9 -26 -4 -49 0 -4 13 1 27 11 25 16 26 16 19 -6 -6 -17 -4
-21 8 -16 9 3 17 -1 19 -11 4 -14 -3 -17 -36 -19 -30 -2 -37 0 -26 7 9 6 10
10 3 10 -6 0 -15 -5 -19 -11 -4 -8 -9 -7 -15 2 -7 12 -11 11 -26 -3 -16 -17
-16 -18 1 -18 13 0 17 -5 13 -20 -4 -17 -1 -19 19 -14 15 4 24 2 24 -5 0 -6
-6 -11 -14 -11 -8 0 -18 -5 -22 -12 -4 -6 -3 -8 2 -5 6 3 16 2 24 -3 11 -7 12
-12 3 -21 -8 -8 -19 -8 -41 4 -28 13 -33 13 -59 -4 -15 -10 -23 -19 -16 -19 6
0 15 5 18 10 8 13 58 1 68 -17 4 -7 13 -13 18 -13 6 0 8 4 5 9 -3 5 8 11 25
15 17 3 28 10 24 16 -3 5 -1 10 4 10 16 0 13 -18 -4 -28 -13 -7 -14 -16 -6
-52 5 -25 8 -46 5 -49 -2 -2 -4 1 -4 8 0 8 -7 10 -20 6 -15 -5 -18 -3 -14 9 3
9 -3 19 -16 26 -18 10 -25 9 -38 -4 -14 -14 -14 -16 1 -22 10 -3 24 -1 32 6
13 11 15 9 12 -9 -2 -13 -10 -26 -17 -31 -9 -6 -1 -11 26 -16 21 -5 42 -7 47
-6 4 1 7 -2 7 -8 0 -5 -4 -10 -10 -10 -5 0 -10 -9 -10 -20 0 -14 5 -18 17 -13
11 4 14 3 9 -6 -5 -7 -14 -10 -20 -8 -7 3 -19 1 -27 -4 -12 -8 -12 -10 1 -18
9 -7 19 -6 27 1 20 16 24 6 12 -35 -5 -21 -8 -41 -4 -46 3 -5 2 -16 -1 -25 -6
-15 -7 -15 -18 -1 -6 9 -24 17 -39 19 -15 1 -30 5 -33 9 -3 3 -17 1 -31 -4
-17 -6 -30 -6 -38 1 -8 7 -12 5 -12 -5 0 -8 3 -13 5 -10 3 3 11 0 18 -6 10 -8
10 -16 2 -34 -6 -14 -15 -22 -20 -19 -4 3 -6 10 -3 15 3 5 -1 6 -10 3 -11 -5
-14 -2 -9 12 6 15 4 17 -6 7 -8 -8 -20 -9 -36 -3 -15 6 -24 6 -24 0 0 -6 -9
-10 -20 -10 -11 0 -20 7 -20 15 0 12 -4 14 -19 5 -14 -7 -22 -7 -27 2 -4 7 -3
8 4 4 7 -4 12 -1 12 8 0 19 -30 22 -31 4 0 -7 -4 -3 -9 10 -5 12 -15 22 -21
22 -7 0 -9 3 -6 7 7 7 -11 33 -23 33 -4 0 -17 -9 -29 -19 -22 -19 -68 -22
-104 -6 -13 5 -18 4 -17 -6 4 -28 0 -45 -16 -65 -8 -10 -13 -14 -10 -7 4 6 0
14 -6 16 -8 3 -6 6 5 6 25 1 21 20 -8 33 -16 7 -24 17 -20 26 4 12 3 13 -10 2
-10 -8 -12 -17 -6 -24 12 -14 3 -29 -26 -45 -19 -10 -22 -9 -17 4 4 8 12 15
20 15 8 0 14 4 14 8 0 13 -47 35 -59 28 -17 -11 -65 32 -68 60 -4 30 13 32 20
2 4 -12 9 -19 13 -16 3 4 -1 20 -9 37 -16 31 -13 41 11 41 10 0 12 -7 8 -25
-5 -20 0 -33 24 -56 21 -22 30 -26 30 -15 0 9 -5 16 -11 16 -6 0 -9 7 -6 15 4
8 2 17 -4 20 -6 4 -6 13 0 23 7 12 3 22 -16 40 l-25 23 -19 -22 c-10 -12 -19
-30 -19 -40 0 -10 -4 -20 -10 -24 -5 -3 -7 -12 -3 -20 5 -14 -11 -20 -44 -16
-7 1 -26 -5 -42 -13 l-29 -15 4 42 c4 38 3 39 -7 15 -6 -17 -15 -25 -25 -21
-8 3 -14 0 -14 -6 0 -6 7 -11 15 -11 20 0 19 -10 -2 -27 -10 -8 -12 -12 -5 -8
17 8 15 -10 -2 -24 -10 -8 -16 -9 -21 -1 -3 5 -11 10 -18 10 -6 0 -3 -6 7 -13
9 -7 18 -19 19 -27 2 -8 7 -21 12 -29 5 -10 4 -16 -3 -19 -7 -2 -12 -11 -12
-20 0 -13 -2 -14 -9 -4 -6 11 -10 11 -19 0 -8 -10 -5 -13 13 -14 23 -2 45 29
45 63 0 12 6 14 27 8 27 -6 27 -6 8 14 -15 18 -16 24 -5 34 10 10 12 8 6 -8
-5 -17 -4 -18 6 -5 7 8 23 14 36 12 12 -2 22 2 22 8 0 6 5 8 10 5 12 -7 12
-16 1 -34 -6 -10 -13 -10 -28 -3 -18 10 -19 8 -18 -23 1 -29 -2 -32 -17 -24
-14 7 -16 6 -12 -6 4 -10 0 -15 -11 -15 -14 0 -15 -3 -5 -15 10 -13 10 -19 -3
-33 -17 -18 -13 -67 4 -56 5 3 9 0 9 -5 0 -14 -13 -14 -28 1 -8 8 -15 8 -26
-1 -12 -10 -15 -9 -19 6 -4 15 -5 14 -6 -4 -1 -29 -18 -38 -38 -21 -15 12 -15
11 -4 -10 7 -13 23 -27 37 -32 13 -5 24 -15 24 -22 1 -7 8 -1 16 15 16 30 36
36 32 10 -2 -13 3 -18 20 -17 12 0 22 -3 22 -7 0 -11 -28 -19 -45 -13 -17 7
-16 7 -20 -86 -1 -36 2 -70 7 -77 6 -7 7 -17 3 -23 -3 -5 2 -10 14 -10 31 0
35 19 7 30 -30 11 -31 16 -12 36 10 9 17 11 21 3 5 -6 12 -4 20 8 11 14 16 16
26 6 11 -11 9 -13 -7 -14 -18 0 -18 -1 1 -9 18 -8 17 -9 -8 -9 -16 -1 -26 -5
-23 -10 3 -5 15 -7 25 -4 10 3 30 -1 42 -8 13 -7 27 -12 31 -11 4 1 5 -5 2
-13 -4 -9 -1 -22 5 -29 9 -10 9 -16 1 -21 -6 -4 -12 -5 -13 -4 -2 2 -10 20
-19 39 l-16 35 -12 -32 c-6 -17 -17 -30 -23 -27 -13 5 -16 -51 -4 -63 4 -3 1
-13 -7 -22 -7 -9 -17 -27 -21 -39 -7 -23 -7 -24 19 -7 22 15 25 15 20 2 -4
-11 3 -17 24 -22 21 -4 31 -13 34 -30 3 -16 1 -22 -8 -18 -12 4 -54 -33 -54
-49 0 -4 -7 -5 -15 -2 -8 3 -13 9 -12 13 3 12 -26 81 -35 81 -4 0 -8 -5 -8
-11 0 -6 -14 2 -32 19 -26 27 -29 34 -18 47 7 8 10 18 7 22 -4 3 -2 12 4 20 9
10 8 13 -5 13 -9 0 -16 -4 -16 -9 0 -5 -7 -12 -16 -15 -12 -4 -15 -2 -10 9 3
8 2 15 -3 15 -4 0 -14 11 -21 25 -7 14 -19 25 -27 25 -7 0 -13 7 -13 15 0 8
-4 15 -10 15 -5 0 -10 10 -10 23 0 38 -14 50 -33 29 -16 -17 -16 -20 3 -40 11
-12 20 -29 20 -38 0 -14 -2 -15 -17 -3 -15 13 -15 12 -3 -11 7 -14 20 -33 28
-43 15 -16 14 -17 -3 -11 -13 5 -16 4 -11 -4 10 -16 -16 -15 -33 1 -12 10 -13
8 -7 -8 5 -14 -1 -11 -18 10 -24 30 -25 30 -40 10 -19 -25 -20 -16 -2 20 10
19 12 35 6 50 -5 13 -6 26 -2 30 3 3 0 3 -9 0 -9 -3 -25 5 -39 20 -13 14 -31
25 -41 25 -17 0 -39 45 -39 82 0 11 -5 29 -12 41 -15 28 -19 67 -7 67 5 0 9
-4 9 -10 0 -5 5 -10 11 -10 7 0 9 10 5 24 -7 30 10 80 24 71 6 -4 7 -11 4 -17
-5 -7 -1 -9 9 -5 11 4 17 1 17 -7 0 -7 7 -20 16 -27 15 -12 16 -11 10 9 -5 16
-3 22 8 22 8 0 18 -5 22 -11 5 -8 13 -4 26 12 11 13 17 17 15 9 -2 -8 3 -24
12 -34 15 -18 15 -19 -1 -13 -10 4 -18 5 -18 4 1 -1 7 -24 14 -52 l13 -50 17
33 c9 17 19 32 22 32 3 0 2 -4 -1 -10 -3 -5 -1 -10 4 -10 14 0 14 6 0 31 -6
13 -7 25 -1 32 15 19 33 107 33 162 0 28 5 67 11 87 6 20 7 45 3 55 -17 42
-14 86 8 117 34 48 47 75 41 91 -3 7 -12 11 -19 9 -10 -4 -12 1 -8 15 4 15 9
18 17 12 6 -6 19 -9 28 -7 22 3 58 36 58 53 0 7 5 13 12 13 9 0 9 3 1 11 -6 6
-9 19 -6 28 4 12 1 12 -11 -3 -8 -10 -26 -24 -38 -30 -24 -12 -31 -36 -13 -48
6 -5 5 -8 -4 -8 -18 0 -51 29 -51 45 0 17 -32 28 -40 14 -5 -7 -10 -8 -14 -1
-16 26 75 53 113 33 17 -10 25 -9 37 4 21 21 32 19 36 -7 3 -20 6 -18 27 19
14 24 33 45 43 49 10 3 31 25 48 48 24 36 36 44 71 50 23 4 53 16 67 26 39 31
39 23 -1 -15z m607 -2 c-10 -7 -21 -13 -26 -13 -4 0 -8 -6 -8 -13 0 -8 -11
-19 -25 -25 -14 -6 -25 -9 -25 -6 0 13 68 71 84 71 18 0 18 -1 0 -14z m-1248
-50 c-11 -11 -19 6 -11 24 8 17 8 17 12 0 3 -10 2 -21 -1 -24z m1103 16 c-22
-14 -33 -10 -19 6 7 8 17 12 22 9 6 -4 5 -10 -3 -15z m-1138 -19 c5 0 8 -3 8
-7 -3 -21 2 -32 14 -28 13 5 16 -49 4 -62 -16 -16 -5 -24 12 -9 30 28 32 -3 2
-44 -14 -19 -25 -36 -26 -36 0 -1 -11 -5 -23 -9 -21 -6 -23 -4 -18 13 6 17 3
19 -15 15 -18 -5 -21 -3 -16 10 3 9 3 19 -2 21 -4 3 -9 30 -10 61 -1 36 2 55
8 51 5 -4 18 8 28 25 13 21 19 26 21 15 2 -9 8 -16 13 -16z m218 -5 c11 -19
27 -35 36 -35 8 0 15 -3 15 -7 0 -9 -56 -11 -63 -3 -5 6 -17 80 -12 80 2 0 12
-16 24 -35z m-104 15 c-3 -5 -14 -10 -23 -10 -15 0 -15 2 -2 10 20 13 33 13
25 0z m630 0 c-3 -5 -13 -10 -21 -10 -8 0 -12 5 -9 10 3 6 13 10 21 10 8 0 12
-4 9 -10z m311 -5 c17 -16 14 -18 -10 -9 -9 3 -16 10 -16 15 0 13 9 11 26 -6z
m518 -1 c4 -10 -3 -12 -24 -7 -19 3 -30 1 -30 -6 0 -6 -8 -11 -17 -11 -13 0
-14 -3 -6 -11 6 -6 9 -18 6 -25 -6 -15 22 -20 31 -5 3 5 17 11 31 13 31 6 33
-12 3 -31 l-21 -13 22 -17 c17 -13 19 -18 7 -18 -8 0 -17 6 -20 14 -8 20 -26
15 -26 -8 0 -11 -4 -18 -9 -15 -5 3 -7 14 -5 24 4 14 -2 17 -35 19 -30 2 -41
-1 -41 -12 0 -13 -22 -30 -44 -35 -10 -2 -26 20 -26 37 0 6 10 15 21 18 17 6
18 9 8 16 -11 6 -10 9 5 15 12 5 23 2 30 -7 14 -18 46 -13 46 8 0 9 -6 13 -15
9 -9 -3 -19 3 -26 16 -8 15 -8 18 0 14 6 -4 11 -2 11 4 0 6 6 10 13 9 23 -3
38 1 33 9 -2 4 13 8 34 8 23 0 41 -5 44 -12z m-864 -9 c10 -12 10 -15 -4 -15
-9 0 -16 7 -16 15 0 8 2 15 4 15 2 0 9 -7 16 -15z m310 5 c0 -5 -4 -10 -10
-10 -5 0 -10 5 -10 10 0 6 5 10 10 10 6 0 10 -4 10 -10z m-50 -19 c0 -5 7 -17
16 -25 8 -9 11 -16 6 -16 -5 0 -17 11 -26 25 -9 14 -12 25 -6 25 5 0 10 -4 10
-9z m70 -6 c0 -9 -9 -15 -25 -15 -14 0 -25 5 -25 11 0 6 7 9 15 6 8 -4 17 -2
20 3 9 14 15 12 15 -5z m-1177 -25 c-3 -11 -7 -20 -9 -20 -2 0 -4 9 -4 20 0
11 4 20 9 20 5 0 7 -9 4 -20z m232 10 c7 -12 -12 -50 -26 -50 -16 0 -22 29 -9
45 14 17 26 19 35 5z m785 5 c0 -2 -9 -9 -19 -15 -14 -7 -22 -7 -27 2 -4 6 -3
8 4 4 6 -3 13 -2 17 4 6 10 25 14 25 5z m-964 -31 c-4 -9 -9 -15 -11 -12 -3 3
-3 13 1 22 4 9 9 15 11 12 3 -3 3 -13 -1 -22z m519 6 c3 -5 -1 -10 -9 -10 -9
0 -16 5 -16 10 0 6 4 10 9 10 6 0 13 -4 16 -10z m-183 -32 c-15 -15 -26 -4
-18 18 5 13 9 15 18 6 9 -9 9 -15 0 -24z m38 12 c0 -5 -4 -10 -10 -10 -5 0
-10 5 -10 10 0 6 5 10 10 10 6 0 10 -4 10 -10z m571 1 c-11 -7 -10 -10 4 -18
10 -6 13 -13 8 -16 -5 -3 -15 -2 -22 3 -16 9 -7 40 11 40 10 0 10 -2 -1 -9z
m175 -30 c-6 -25 -6 -25 9 -6 9 11 13 25 11 32 -3 7 1 13 9 13 8 0 15 -7 15
-15 0 -8 -5 -15 -12 -15 -9 0 -9 -3 0 -12 16 -16 15 -31 0 -22 -10 6 -10 4 0
-8 11 -14 10 -17 -7 -23 -12 -3 -25 -4 -30 -1 -5 4 -11 0 -14 -6 -2 -7 -8 -10
-12 -6 -4 4 -2 14 5 23 10 12 10 15 -3 15 -18 0 -30 40 -16 56 5 7 19 10 30 7
16 -5 19 -11 15 -32z m649 9 c3 -6 -1 -7 -9 -4 -18 7 -21 14 -7 14 6 0 13 -4
16 -10z m-1550 -10 c3 -5 1 -10 -4 -10 -6 0 -11 5 -11 10 0 6 2 10 4 10 3 0 8
-4 11 -10z m1535 -9 c0 -6 -4 -13 -10 -16 -5 -3 -10 1 -10 9 0 9 5 16 10 16 6
0 10 -4 10 -9z m80 -21 c6 -11 7 -20 2 -20 -6 0 -12 9 -15 20 -3 11 -3 20 -1
20 2 0 8 -9 14 -20z m-1530 -25 c0 -8 -4 -15 -10 -15 -5 0 -10 7 -10 15 0 8 5
15 10 15 6 0 10 -7 10 -15z m514 -51 c-15 -14 -28 -23 -31 -20 -3 2 5 14 16
25 12 12 21 31 22 44 l0 22 9 -22 c7 -18 4 -28 -16 -49z m-57 14 c1 -18 -1
-28 -4 -21 -2 7 -11 9 -20 6 -13 -5 -13 -2 2 20 9 15 18 27 20 27 1 0 2 -15 2
-32z m-638 -7 c-15 -5 -22 6 -14 19 6 9 10 9 16 -1 5 -8 4 -15 -2 -18z m918
23 c-3 -3 -12 -4 -19 -1 -8 3 -5 6 6 6 11 1 17 -2 13 -5z m873 -4 c0 -5 -5
-10 -11 -10 -5 0 -7 -5 -4 -10 4 -6 1 -18 -6 -26 -12 -14 -14 -14 -20 3 -6 15
-8 13 -8 -9 -1 -14 5 -29 12 -31 9 -4 9 -8 -2 -15 -12 -9 -12 -13 2 -27 10 -9
17 -21 17 -26 0 -13 -44 -11 -59 4 -11 10 -12 9 -6 -2 5 -9 4 -12 -3 -7 -24
14 -63 -6 -69 -36 -4 -21 -10 -27 -21 -23 -13 5 -13 3 -1 -11 12 -15 12 -17
-1 -12 -25 8 -25 76 0 111 18 24 20 31 9 38 -13 8 -5 13 14 10 98 -18 121 -6
70 36 l-28 22 24 1 c24 0 24 0 5 15 -17 13 -15 14 34 15 28 0 52 -4 52 -10z
m-1891 -57 c-6 -7 -18 -13 -25 -13 -8 0 -14 -5 -14 -12 0 -9 -3 -9 -11 -1 -8
8 -7 17 3 32 8 12 18 18 21 14 4 -3 7 2 7 13 1 19 1 19 15 0 11 -14 12 -23 4
-33z m-109 17 c0 -13 -20 -13 -40 0 -12 8 -9 10 13 10 15 0 27 -4 27 -10z
m130 -30 c-6 -11 -15 -20 -20 -20 -16 0 -11 18 8 29 24 14 24 14 12 -9z m1564
4 c3 -8 10 -12 16 -9 6 4 8 11 5 16 -4 5 -1 9 4 9 18 0 12 -36 -9 -61 -10 -13
-19 -19 -20 -12 0 7 -9 21 -21 32 -22 20 -19 41 6 41 7 0 16 -7 19 -16z
m-1240 -10 c9 -24 2 -26 -12 -4 -7 11 -8 20 -3 20 5 0 12 -7 15 -16z m1556 -8
c0 -8 -6 -16 -14 -19 -10 -4 -12 0 -9 14 6 22 23 26 23 5z m-1145 -16 c3 -5 1
-10 -4 -10 -6 0 -11 5 -11 10 0 6 2 10 4 10 3 0 8 -4 11 -10z m575 -20 c0 -5
-2 -10 -4 -10 -3 0 -8 5 -11 10 -3 6 -1 10 4 10 6 0 11 -4 11 -10z m320 -30
c0 -5 -7 -10 -15 -10 -8 0 -15 5 -15 10 0 6 7 10 15 10 8 0 15 -4 15 -10z
m-1460 -14 c0 -2 -7 -9 -15 -16 -12 -10 -15 -10 -15 4 0 9 7 16 15 16 8 0 15
-2 15 -4z m1853 -10 c6 -14 -18 -26 -60 -30 -32 -3 -28 8 10 26 42 20 44 20
50 4z m-398 -6 c-3 -5 -12 -10 -18 -10 -7 0 -6 4 3 10 19 12 23 12 15 0z m175
-40 c8 -15 8 -18 -4 -14 -7 3 -23 -6 -34 -21 -28 -35 -39 -13 -12 25 25 35 35
37 50 10z m-1762 -37 c-2 -10 -10 -17 -16 -15 -7 1 -15 -5 -18 -13 -9 -22 -23
-9 -17 16 3 12 11 18 19 15 8 -3 14 -1 14 4 0 6 5 10 11 10 6 0 9 -8 7 -17z
m32 -19 c0 -3 -7 -12 -15 -21 -20 -19 -32 -9 -15 12 12 15 30 20 30 9z m1634
-18 c-4 -9 -13 -15 -20 -12 -8 3 -14 2 -14 -3 0 -5 -9 -11 -21 -14 -11 -3 -19
-11 -19 -19 3 -19 -11 -58 -21 -58 -4 0 -13 8 -18 18 -9 14 -12 15 -20 3 -5
-7 -14 -10 -20 -7 -6 4 -11 2 -11 -5 0 -6 -11 -22 -25 -35 -14 -13 -25 -32
-23 -41 2 -13 -5 -19 -24 -21 -29 -3 -39 15 -13 24 20 8 19 31 -1 42 -11 6
-15 17 -12 30 3 12 1 23 -6 25 -28 10 5 16 52 8 28 -4 57 -4 64 0 7 5 23 9 36
9 13 0 20 4 17 10 -3 6 -1 10 5 10 7 0 9 8 5 20 -4 11 -2 20 4 20 6 0 11 -5
11 -12 0 -9 3 -9 12 0 7 7 22 12 35 12 13 0 23 5 23 12 0 6 2 9 5 6 3 -3 3
-13 -1 -22z m-1549 -6 c3 -5 2 -10 -4 -10 -5 0 -13 5 -16 10 -3 6 -2 10 4 10
5 0 13 -4 16 -10z m-270 -10 c-3 -5 -1 -19 5 -30 8 -16 8 -20 -4 -20 -8 0 -16
-6 -19 -12 -2 -7 -8 -9 -13 -5 -5 4 -3 12 5 16 7 5 12 14 11 22 -4 25 0 39 11
39 5 0 7 -4 4 -10z m742 -17 c2 -6 -8 -10 -22 -10 -14 0 -25 4 -25 9 0 5 5 6
10 3 6 -3 10 -1 10 5 0 14 22 8 27 -7z m1173 10 c-1 -20 -18 -33 -35 -27 -17
7 -17 8 1 21 20 14 34 17 34 6z m-1540 -7 c0 -3 -4 -8 -10 -11 -5 -3 -10 -1
-10 4 0 6 5 11 10 11 6 0 10 -2 10 -4z m1460 -16 c0 -5 -7 -10 -16 -10 -8 0
-12 5 -9 10 3 6 10 10 16 10 5 0 9 -4 9 -10z m-1077 -21 c-6 -6 -9 -19 -6 -28
5 -14 3 -13 -13 2 -16 15 -17 19 -4 27 21 13 36 12 23 -1z m-178 -9 c3 -5 1
-10 -4 -10 -6 0 -11 5 -11 10 0 6 2 10 4 10 3 0 8 -4 11 -10z m222 4 c-3 -3
-12 -4 -19 -1 -8 3 -5 6 6 6 11 1 17 -2 13 -5z m1018 -4 c3 -5 1 -10 -4 -10
-6 0 -11 5 -11 10 0 6 2 10 4 10 3 0 8 -4 11 -10z m-1745 -4 c0 -11 -19 -15
-25 -6 -3 5 1 10 9 10 9 0 16 -2 16 -4z m1805 -5 c-3 -5 0 -13 6 -17 6 -3 15
0 20 7 6 11 10 11 19 1 5 -6 8 -10 4 -8 -3 2 -23 -13 -43 -35 -21 -21 -40 -36
-43 -33 -9 9 25 94 38 94 3 0 3 -4 -1 -9z m-98 -26 c-15 -16 -19 -13 -11 9 3
9 10 13 15 10 5 -3 3 -11 -4 -19z m230 18 c-4 -3 -2 -12 4 -20 7 -8 8 -13 1
-13 -5 0 -15 6 -21 13 -11 14 -5 27 12 27 6 0 7 -3 4 -7z m-1768 -44 c-13 -26
-16 -24 -15 10 1 22 4 27 13 19 9 -7 10 -16 2 -29z m486 21 c3 -5 -3 -10 -15
-10 -12 0 -18 5 -15 10 3 6 10 10 15 10 5 0 12 -4 15 -10z m390 0 c3 -5 1 -10
-4 -10 -6 0 -11 5 -11 10 0 6 2 10 4 10 3 0 8 -4 11 -10z m322 -9 c11 -18 9
-20 -14 -23 -15 -2 -29 -9 -31 -17 -3 -9 0 -11 8 -6 9 5 11 4 6 -3 -5 -9 -13
-9 -27 -2 -19 11 -19 11 1 41 25 34 40 37 57 10z m300 -7 c-3 -3 -12 -4 -19
-1 -8 3 -5 6 6 6 11 1 17 -2 13 -5z m211 -8 c-10 -7 -18 -18 -18 -24 0 -13
-26 -23 -45 -16 -21 8 -9 24 14 19 12 -2 21 3 24 16 3 10 13 19 24 19 17 -1
17 -1 1 -14z m-865 -13 c-7 -3 -13 -13 -13 -24 0 -11 -5 -16 -13 -13 -7 2 -22
-4 -32 -16 -10 -11 -25 -20 -34 -19 -12 0 -11 3 4 8 11 5 20 14 20 22 0 7 11
19 23 25 13 6 29 17 35 23 6 6 13 8 16 4 3 -3 0 -8 -6 -10z m167 13 c0 -2 -7
-6 -15 -10 -8 -3 -15 -1 -15 4 0 6 7 10 15 10 8 0 15 -2 15 -4z m270 -8 c0 -4
-7 -8 -15 -8 -8 0 -15 4 -15 8 0 5 7 9 15 9 8 0 15 -4 15 -9z m470 7 c0 -2
-10 -10 -22 -16 -21 -11 -22 -11 -9 4 13 16 31 23 31 12z m-835 -35 c-17 -18
-45 -28 -45 -15 0 14 27 34 44 35 18 0 18 -1 1 -20z m606 -3 c-10 -9 -11 -8
-5 6 3 10 9 15 12 12 3 -3 0 -11 -7 -18z m-1515 -20 c1 -17 -1 -24 -3 -14 -2
9 -9 17 -14 17 -6 0 -7 -9 -4 -20 7 -22 -5 -26 -23 -8 -9 9 -6 17 15 35 16 12
28 22 28 23 0 0 1 -15 1 -33z m1001 27 c-3 -3 -12 -4 -19 -1 -8 3 -5 6 6 6 11
1 17 -2 13 -5z m213 -4 c0 -5 -7 -10 -16 -10 -8 0 -12 5 -9 10 3 6 10 10 16
10 5 0 9 -4 9 -10z m-180 -10 c0 -5 -7 -10 -16 -10 -8 0 -12 5 -9 10 3 6 10
10 16 10 5 0 9 -4 9 -10z m60 -10 c-6 -11 -16 -17 -22 -14 -7 4 -8 3 -4 -4 5
-8 -1 -12 -14 -12 -17 0 -21 -4 -16 -17 4 -9 2 -20 -5 -23 -7 -5 -8 -17 -4
-31 l8 -24 10 23 c11 24 22 28 33 11 3 -6 1 -15 -6 -19 -7 -4 -9 -13 -5 -20 6
-9 4 -11 -5 -5 -9 5 -11 4 -6 -3 4 -7 14 -12 22 -12 8 0 14 -5 14 -12 0 -18
29 25 30 43 0 9 9 27 21 40 11 13 18 18 14 12 -8 -16 5 -39 14 -25 10 15 71
26 71 12 0 -7 -7 -10 -15 -6 -9 3 -15 0 -15 -9 0 -26 3 -30 21 -27 9 2 20 -2
24 -8 8 -13 -12 -33 -52 -49 -18 -7 -33 -17 -33 -22 0 -5 -9 -9 -20 -9 -11 0
-20 -5 -20 -11 0 -6 7 -9 15 -5 8 3 15 2 15 -3 0 -5 -9 -11 -20 -14 -12 -3
-20 0 -20 7 0 6 -8 16 -19 23 -15 10 -23 8 -40 -8 l-22 -20 7 25 c4 17 2 26
-6 26 -8 0 -9 10 -5 31 7 29 6 30 -15 19 -21 -11 -22 -10 -17 10 5 20 -24 63
-45 66 -5 1 -13 2 -19 3 -5 0 -7 6 -4 12 4 6 14 8 22 4 13 -4 14 -3 3 10 -7 8
-21 15 -31 15 -11 0 -19 5 -19 10 0 14 13 13 46 -4 15 -8 32 -12 38 -8 8 5 83
35 104 41 1 1 -2 -8 -8 -19z m470 6 c0 -3 -4 -8 -10 -11 -5 -3 -10 -1 -10 4 0
6 5 11 10 11 6 0 10 -2 10 -4z m-383 -41 c-7 -16 -37 -21 -37 -5 0 10 32 31
39 25 2 -2 1 -11 -2 -20z m-517 10 c0 -2 -7 -8 -15 -15 -12 -10 -15 -10 -15 2
0 8 7 15 15 15 8 0 15 -1 15 -2z m439 -24 c-15 -5 -22 6 -14 19 6 9 10 9 16
-1 5 -8 4 -15 -2 -18z m-520 2 c-4 -25 2 -35 14 -25 15 13 42 -1 33 -17 -4 -6
-17 -11 -29 -11 -13 0 -17 -4 -11 -9 14 -15 38 -17 39 -4 0 13 43 53 57 53 5
0 6 -6 3 -12 -4 -7 1 -4 10 7 11 12 16 14 13 5 -3 -8 2 -20 11 -26 13 -10 13
-13 -2 -28 -30 -30 -22 -48 18 -40 19 3 35 4 35 0 0 -5 -66 -36 -77 -36 -3 0
-3 22 -1 50 6 60 -12 73 -42 30 l-20 -28 21 5 c17 5 20 2 17 -13 -2 -10 -10
-19 -18 -20 -8 0 -26 -4 -38 -8 -30 -10 -95 2 -86 15 3 5 0 17 -7 25 -6 8 -9
17 -5 21 3 3 6 0 6 -7 0 -9 9 -5 25 10 28 27 33 50 9 50 -8 0 -12 5 -9 10 7
12 36 14 34 3z m-759 -24 c0 -5 -4 -9 -10 -9 -5 0 -10 7 -10 16 0 8 5 12 10 9
6 -3 10 -10 10 -16z m990 7 c0 -3 -4 -8 -10 -11 -5 -3 -10 -1 -10 4 0 6 5 11
10 11 6 0 10 -2 10 -4z m290 -17 c0 -5 -4 -9 -10 -9 -5 0 -10 7 -10 16 0 8 5
12 10 9 6 -3 10 -10 10 -16z m-562 5 c17 -5 20 -10 11 -20 -12 -15 -35 -9 -43
12 -6 16 -2 17 32 8z m297 -4 c-3 -5 -11 -10 -16 -10 -6 0 -7 5 -4 10 3 6 11
10 16 10 6 0 7 -4 4 -10z m455 -45 c6 -4 17 -1 25 5 27 23 15 -1 -16 -32 -30
-31 -31 -31 -27 -7 2 13 -3 29 -11 35 -9 7 -12 18 -7 30 8 18 8 18 16 -2 5
-12 14 -25 20 -29z m-505 13 c-2 -25 -14 -32 -35 -18 -13 8 -12 11 5 24 27 21
32 20 30 -6z m785 3 c0 -5 -7 -12 -16 -15 -14 -5 -15 -4 -4 9 14 17 20 19 20
6z m-1100 -11 c0 -5 -4 -10 -10 -10 -5 0 -10 5 -10 10 0 6 5 10 10 10 6 0 10
-4 10 -10z m1156 -17 c-7 -8 -11 -9 -37 -12 -5 0 -7 -5 -4 -11 3 -5 -3 -10
-14 -10 -28 0 -27 14 2 28 25 12 64 16 53 5z m-821 -23 c3 -5 1 -10 -4 -10 -6
0 -11 5 -11 10 0 6 2 10 4 10 3 0 8 -4 11 -10z m645 -30 c0 -5 -4 -10 -10 -10
-5 0 -10 5 -10 10 0 6 5 10 10 10 6 0 10 -4 10 -10z m-765 -20 c-3 -5 -10 -10
-16 -10 -5 0 -9 5 -9 10 0 6 7 10 16 10 8 0 12 -4 9 -10z m-328 -39 c0 -9 -9
-18 -20 -18 -14 -2 -16 1 -8 11 6 8 8 22 4 32 -6 17 -5 17 9 6 9 -7 16 -21 15
-31z m43 20 c0 -5 -7 -12 -16 -15 -14 -5 -15 -4 -4 9 14 17 20 19 20 6z m1115
-31 c-3 -5 -10 -10 -14 -10 -10 0 -21 37 -14 44 9 8 35 -23 28 -34z m-1935 6
c0 -3 -4 -8 -10 -11 -5 -3 -10 -1 -10 4 0 6 5 11 10 11 6 0 10 -2 10 -4z
m2110 -6 c0 -5 -2 -10 -4 -10 -3 0 -8 5 -11 10 -3 6 -1 10 4 10 6 0 11 -4 11
-10z m-2044 -44 c4 -35 12 -45 24 -26 5 8 12 11 16 7 4 -4 -1 -17 -12 -29 -17
-19 -17 -21 -1 -15 12 5 17 1 17 -13 0 -11 -4 -20 -10 -20 -5 0 -10 -8 -11
-17 0 -10 -10 2 -21 27 -11 25 -26 48 -32 52 -8 5 -7 8 2 8 10 0 12 9 7 31 -5
23 -4 30 5 27 7 -2 14 -17 16 -32z m104 30 c0 -3 -4 -8 -10 -11 -5 -3 -10 -1
-10 4 0 6 5 11 10 11 6 0 10 -2 10 -4z m920 -7 c0 -5 -10 -10 -22 -10 l-23 -2
23 -4 c12 -2 22 -10 22 -17 0 -8 7 -19 15 -26 8 -7 15 -17 15 -23 0 -6 -3 -7
-7 -4 -3 4 -12 2 -19 -4 -7 -6 -23 -7 -35 -4 l-22 7 24 19 c13 9 21 21 17 25
-4 4 -14 1 -23 -6 -9 -7 -19 -10 -22 -6 -4 4 -2 11 5 15 7 4 12 12 11 17 -4
21 2 30 21 31 11 1 20 -2 20 -8z m43 -3 c4 -10 1 -13 -9 -9 -15 6 -19 23 -5
23 5 0 11 -7 14 -14z m457 2 c0 -6 -9 -8 -20 -5 -20 5 -20 5 0 -20 23 -30 18
-43 -16 -43 -15 0 -24 6 -24 15 0 8 5 15 10 15 6 0 8 10 4 24 -5 20 -2 24 20
24 14 0 26 -5 26 -10z m-1220 -78 c0 -6 -7 -13 -15 -16 -8 -4 -12 -11 -8 -17
4 -7 0 -8 -11 -4 -10 4 -20 7 -22 7 -2 0 -4 4 -4 10 0 5 7 7 15 4 17 -7 20 7
5 22 -6 6 -8 18 -4 28 6 16 8 15 25 -3 11 -11 19 -25 19 -31z m190 30 c0 -5
-4 -10 -10 -10 -5 0 -10 5 -10 10 0 6 5 10 10 10 6 0 10 -4 10 -10z m-348 -32
c-4 -30 -6 -30 -19 -12 -12 16 -11 20 4 31 9 7 17 13 18 13 1 0 -1 -14 -3 -32z
m-196 -13 c4 -21 10 -32 17 -28 6 4 8 0 4 -10 -3 -8 0 -21 8 -27 10 -8 11 -18
4 -36 -6 -17 -6 -23 1 -19 6 3 10 -4 10 -17 0 -13 -4 -18 -8 -13 -4 6 -19 11
-34 13 -21 3 -27 -1 -30 -20 -2 -12 -10 -24 -19 -26 -21 -4 -33 26 -18 44 6 7
8 23 4 35 -5 14 -4 19 4 15 15 -9 31 35 31 85 0 48 17 51 26 4z m994 25 c0 -5
-9 -10 -20 -10 -11 0 -20 5 -20 10 0 6 9 10 20 10 11 0 20 -4 20 -10z m1075 0
c-3 -5 -11 -10 -16 -10 -6 0 -7 5 -4 10 3 6 11 10 16 10 6 0 7 -4 4 -10z
m-1124 -57 c-10 -17 -10 -16 -11 3 0 23 13 41 18 25 2 -6 -1 -18 -7 -28z m92
4 c3 -7 -3 -13 -14 -14 -15 -1 -16 1 -6 12 15 18 14 18 20 2z m-37 -32 c8 -21
-6 -41 -17 -24 -12 19 -11 39 1 39 6 0 13 -7 16 -15z m814 1 c0 -3 -4 -8 -10
-11 -5 -3 -10 -1 -10 4 0 6 5 11 10 11 6 0 10 -2 10 -4z m-666 -37 c-2 -4 2
-9 10 -12 7 -3 16 -15 19 -26 4 -16 0 -21 -14 -21 -11 0 -23 8 -26 18 -4 9
-11 21 -17 25 -8 6 -7 10 2 14 6 2 12 12 12 21 0 14 2 15 9 2 6 -8 8 -17 5
-21z m-724 -20 c7 -12 7 -20 0 -24 -5 -3 -10 1 -10 9 0 9 -4 16 -9 16 -5 0
-11 7 -14 14 -8 21 21 8 33 -15z m419 -16 c0 -25 -1 -25 -8 -8 -5 11 -7 23 -4
28 8 14 13 7 12 -20z m1301 -13 c0 -5 -10 -15 -22 -21 -23 -12 -23 -12 -4 10
21 23 26 26 26 11z m-1015 -30 c-3 -5 -11 -10 -16 -10 -6 0 -7 5 -4 10 3 6 11
10 16 10 6 0 7 -4 4 -10z m-175 -20 c0 -11 -4 -20 -10 -20 -5 0 -10 9 -10 20
0 11 5 20 10 20 6 0 10 -9 10 -20z m-329 0 c5 0 9 -4 9 -10 0 -5 -9 -10 -21
-10 -11 0 -18 4 -15 9 4 5 3 11 -1 14 -5 2 -2 2 5 0 8 -1 18 -3 23 -3z m279
-16 c-6 -14 -8 -30 -4 -35 3 -5 0 -9 -5 -9 -6 0 -11 2 -11 4 0 2 -3 11 -6 19
-3 8 2 22 11 31 23 22 26 20 15 -10z m-325 6 c3 -5 1 -10 -4 -10 -6 0 -11 5
-11 10 0 6 2 10 4 10 3 0 8 -4 11 -10z m65 -24 c0 -3 -4 -8 -10 -11 -5 -3 -10
-1 -10 4 0 6 5 11 10 11 6 0 10 -2 10 -4z m215 -60 c-3 -12 -2 -15 1 -8 6 12
24 7 24 -7 0 -18 -43 -5 -58 17 -14 21 -13 22 3 15 15 -5 17 -3 12 12 -6 15
-5 16 8 5 9 -7 13 -22 10 -34z m120 24 c3 -5 1 -10 -4 -10 -6 0 -11 5 -11 10
0 6 2 10 4 10 3 0 8 -4 11 -10z m125 -21 c0 -6 -4 -7 -10 -4 -5 3 -10 11 -10
16 0 6 5 7 10 4 6 -3 10 -11 10 -16z m-310 -26 c0 -19 -3 -24 -10 -17 -6 6 -8
18 -4 27 9 24 14 21 14 -10z m295 0 c3 -10 1 -19 -4 -21 -6 -2 -11 -14 -11
-27 0 -13 -4 -27 -10 -30 -11 -7 -14 77 -3 88 11 12 21 8 28 -10z m-250 -15
c6 -4 2 -8 -7 -8 -10 0 -18 7 -18 17 0 9 3 12 8 7 4 -5 12 -12 17 -16z m641 3
c0 -11 -3 -18 -7 -15 -11 7 -39 -7 -39 -20 0 -17 -37 -37 -56 -29 -12 4 -15 3
-10 -5 5 -8 2 -10 -9 -6 -14 6 -14 8 1 25 13 15 20 16 31 7 11 -8 17 -8 26 2
7 8 8 11 1 7 -7 -4 -11 3 -11 18 0 21 3 24 23 19 15 -4 24 -2 24 5 0 6 6 11
13 11 7 0 13 -9 13 -19z m-636 -55 c0 -3 -4 -8 -10 -11 -5 -3 -10 -1 -10 4 0
6 5 11 10 11 6 0 10 -2 10 -4z m616 -37 c2 -29 1 -30 -17 -13 -11 9 -21 15
-24 12 -3 -3 1 -11 10 -18 8 -7 15 -24 14 -39 -1 -26 -1 -26 -11 4 -6 17 -15
35 -19 41 -6 7 -3 16 6 24 10 9 15 9 15 1 0 -6 5 -11 11 -11 6 0 8 9 3 23 -3
12 -3 18 2 14 4 -4 9 -21 10 -38z m-96 -9 c0 -5 -4 -10 -10 -10 -5 0 -10 5
-10 10 0 6 5 10 10 10 6 0 10 -4 10 -10z m-15 -30 c3 -5 1 -10 -4 -10 -6 0
-11 5 -11 10 0 6 2 10 4 10 3 0 8 -4 11 -10z m-435 -90 c0 -16 -4 -30 -8 -30
-5 0 -7 14 -4 30 2 17 6 30 8 30 2 0 4 -13 4 -30z m528 5 c-3 -3 -9 2 -12 12
-6 14 -5 15 5 6 7 -7 10 -15 7 -18z m-89 -37 c1 -5 -3 -8 -9 -8 -5 0 -10 12
-9 28 0 24 1 25 9 7 5 -11 9 -23 9 -27z m115 13 c3 -5 -5 -8 -19 -7 -14 0 -25
4 -25 9 0 10 38 9 44 -2z m-79 -21 c-3 -5 -12 -10 -18 -10 -7 0 -6 4 3 10 19
12 23 12 15 0z m95 -64 c0 -3 -4 -8 -10 -11 -5 -3 -10 -1 -10 4 0 6 5 11 10
11 6 0 10 -2 10 -4z m-230 -356 c0 -5 -2 -10 -4 -10 -3 0 -8 5 -11 10 -3 6 -1
10 4 10 6 0 11 -4 11 -10z m450 -490 c0 -5 -4 -10 -10 -10 -5 0 -10 5 -10 10
0 6 5 10 10 10 6 0 10 -4 10 -10z"/>
<path d="M2651 6467 c-1 -16 -16 -26 -65 -41 -39 -13 -4 -18 39 -6 48 13 48
14 35 45 -7 17 -9 18 -9 2z"/>
<path d="M2556 5967 c-10 -8 -16 -22 -14 -35 3 -20 5 -19 36 13 27 29 29 35
14 35 -10 0 -26 -6 -36 -13z"/>
<path d="M3001 5824 c0 -11 3 -14 6 -6 3 7 2 16 -1 19 -3 4 -6 -2 -5 -13z"/>
<path d="M2420 5810 c0 -5 5 -10 10 -10 6 0 10 5 10 10 0 6 -4 10 -10 10 -5 0
-10 -4 -10 -10z"/>
<path d="M2408 5718 c9 -9 15 -9 24 0 9 9 7 12 -12 12 -19 0 -21 -3 -12 -12z"/>
<path d="M1756 4374 c-4 -9 -4 -19 -1 -22 2 -3 7 3 11 12 4 9 4 19 1 22 -2 3
-7 -3 -11 -12z"/>
<path d="M820 4030 c8 -5 22 -9 30 -9 10 0 8 3 -5 9 -27 12 -43 12 -25 0z"/>
<path d="M1660 4019 c0 -22 32 -49 37 -32 2 7 11 9 19 6 22 -8 17 5 -7 18 -15
8 -19 8 -15 0 4 -6 3 -11 -3 -11 -5 0 -15 8 -20 18 -9 15 -10 15 -11 1z"/>
<path d="M935 3970 c-8 -12 4 -54 13 -45 3 3 7 14 9 25 3 21 -12 36 -22 20z"/>
<path d="M998 3953 c-8 -10 -14 -28 -13 -40 2 -26 -10 -31 -19 -7 -3 8 -10 12
-16 9 -6 -3 -13 1 -16 9 -11 30 -23 16 -14 -16 6 -20 6 -36 0 -43 -6 -7 -9
-23 -8 -36 3 -29 -24 -34 -28 -6 -1 11 -6 22 -10 25 -4 4 -4 -1 -1 -10 4 -10
3 -18 -1 -18 -11 0 -56 -70 -49 -76 7 -7 47 32 47 46 0 6 4 10 10 10 15 0 28
-31 22 -53 -4 -16 -2 -19 11 -14 12 4 17 1 18 -11 0 -14 2 -14 6 -2 6 16 23
30 36 30 5 0 6 -4 3 -9 -4 -5 -1 -11 5 -13 7 -2 7 -12 0 -33 -10 -27 -10 -28
3 -11 8 10 20 15 26 11 7 -4 10 0 8 10 -2 10 2 20 9 22 6 2 13 -6 16 -19 2
-13 2 6 -1 40 -4 48 -2 66 8 72 16 10 37 1 23 -9 -6 -3 -13 -19 -17 -36 -7
-28 -6 -29 10 -13 19 19 28 65 13 73 -5 4 -9 16 -9 28 0 17 -2 19 -9 8 -5 -8
-7 -20 -4 -28 3 -7 0 -13 -6 -13 -6 0 -11 5 -11 11 0 5 -4 7 -10 4 -5 -3 -10
-2 -10 4 0 5 4 12 9 15 9 6 4 72 -8 94 -6 10 -11 9 -23 -5z"/>
<path d="M1396 3892 c-3 -5 1 -15 9 -22 16 -14 20 -3 6 19 -5 8 -11 9 -15 3z"/>
<path d="M1577 3885 c3 -8 9 -12 14 -9 12 7 11 11 -5 17 -10 4 -13 1 -9 -8z"/>
<path d="M1290 3870 c0 -5 5 -10 11 -10 5 0 7 5 4 10 -3 6 -8 10 -11 10 -2 0
-4 -4 -4 -10z"/>
<path d="M1500 3851 c0 -12 5 -21 10 -21 6 0 10 6 10 14 0 8 -4 18 -10 21 -5
3 -10 -3 -10 -14z"/>
<path d="M1700 3815 c0 -8 4 -15 10 -15 5 0 7 7 4 15 -4 8 -8 15 -10 15 -2 0
-4 -7 -4 -15z"/>
<path d="M1476 3804 c-10 -25 -7 -34 9 -34 17 0 20 -16 5 -25 -5 -3 -6 -13 -3
-21 4 -12 9 -8 21 15 16 35 24 38 46 16 8 -8 19 -15 25 -15 5 0 12 -8 14 -17
4 -14 5 -13 6 4 0 12 -4 25 -9 28 -6 4 -7 11 -4 17 4 6 2 8 -3 5 -6 -4 -16 -1
-22 7 -9 11 -9 15 1 19 8 3 8 6 2 6 -6 1 -17 -6 -24 -14 -17 -21 -30 -19 -30
5 0 24 -25 27 -34 4z"/>
<path d="M1617 3800 c3 -11 9 -20 14 -20 11 0 11 3 3 24 -9 23 -23 20 -17 -4z"/>
<path d="M1198 3803 c7 -3 16 -2 19 1 4 3 -2 6 -13 5 -11 0 -14 -3 -6 -6z"/>
<path d="M1276 3794 c-4 -10 -14 -12 -30 -8 -19 4 -26 1 -31 -17 -5 -14 -3
-25 4 -27 6 -2 11 -10 11 -17 0 -7 18 -22 41 -33 40 -20 69 -20 69 0 0 6 -7 8
-15 4 -8 -3 -25 -1 -37 3 -19 8 -20 10 -7 16 10 3 15 14 12 23 -2 10 5 22 17
30 12 7 20 8 20 2 0 -5 5 -10 11 -10 21 0 3 22 -28 35 -27 11 -32 11 -37 -1z"/>
<path d="M1722 3768 c1 -7 -2 -24 -6 -37 -10 -28 -1 -37 47 -45 29 -6 37 -4
37 8 0 9 -9 20 -20 26 -12 6 -25 22 -30 36 -10 24 -33 34 -28 12z"/>
<path d="M1420 3720 c0 -5 5 -10 11 -10 5 0 7 5 4 10 -3 6 -8 10 -11 10 -2 0
-4 -4 -4 -10z"/>
<path d="M1460 3690 c0 -5 5 -10 10 -10 6 0 10 5 10 10 0 6 -4 10 -10 10 -5 0
-10 -4 -10 -10z"/>
<path d="M1499 3680 c0 -3 -2 -15 -5 -27 -3 -16 1 -23 11 -23 8 0 15 6 15 13
0 12 -19 46 -21 37z"/>
<path d="M1195 3660 c4 -6 11 -8 16 -5 14 9 11 15 -7 15 -8 0 -12 -5 -9 -10z"/>
<path d="M1260 3655 c0 -8 4 -15 10 -15 5 0 7 7 4 15 -4 8 -8 15 -10 15 -2 0
-4 -7 -4 -15z"/>
<path d="M1740 3660 c8 -5 24 -10 34 -10 26 0 18 6 -19 14 -22 5 -26 4 -15 -4z"/>
<path d="M1810 3659 c0 -5 5 -7 10 -4 6 3 10 8 10 11 0 2 -4 4 -10 4 -5 0 -10
-5 -10 -11z"/>
<path d="M860 3579 c0 -5 5 -7 10 -4 6 3 10 8 10 11 0 2 -4 4 -10 4 -5 0 -10
-5 -10 -11z"/>
<path d="M905 3470 c3 -5 8 -10 11 -10 2 0 4 5 4 10 0 6 -5 10 -11 10 -5 0 -7
-4 -4 -10z"/>
<path d="M800 3358 c0 -12 3 -17 8 -12 4 5 11 12 15 15 5 3 2 9 -7 12 -12 5
-16 0 -16 -15z"/>
<path d="M662 3340 c1 -14 -1 -31 -5 -37 -5 -7 -4 -13 2 -13 6 0 8 -7 5 -15
-4 -8 -2 -15 4 -15 6 0 12 5 14 12 3 8 6 7 10 -3 3 -9 2 -22 -2 -29 -7 -11
-11 -11 -24 -1 -10 8 -16 9 -16 3 0 -6 4 -13 9 -17 6 -3 8 -19 6 -36 -5 -43
18 -32 29 14 10 41 25 48 33 17 3 -11 9 -20 14 -20 14 0 11 16 -6 30 -9 7 -14
19 -11 26 3 9 -1 11 -12 7 -12 -5 -10 1 7 20 25 28 21 38 -5 12 -17 -16 -45
-10 -38 9 3 7 0 23 -6 37 l-10 24 2 -25z"/>
<path d="M757 3293 c-4 -3 -7 -11 -7 -17 0 -6 5 -5 12 2 6 6 9 14 7 17 -3 3
-9 2 -12 -2z"/>
<path d="M675 3141 c-3 -5 -1 -12 5 -16 5 -3 10 1 10 9 0 18 -6 21 -15 7z"/>
<path d="M470 4135 c0 -14 48 -56 54 -47 3 5 -1 13 -10 16 -9 4 -14 13 -10 21
4 10 -1 15 -14 15 -11 0 -20 -2 -20 -5z"/>
<path d="M2238 3848 c9 -9 15 -9 24 0 9 9 7 12 -12 12 -19 0 -21 -3 -12 -12z"/>
<path d="M1780 3339 c0 -5 5 -7 10 -4 6 3 10 8 10 11 0 2 -4 4 -10 4 -5 0 -10
-5 -10 -11z"/>
<path d="M1820 3330 c-9 -6 -10 -10 -3 -10 6 0 15 5 18 10 8 12 4 12 -15 0z"/>
<path d="M1666 3311 c-4 -7 -5 -15 -2 -18 9 -9 19 4 14 18 -4 11 -6 11 -12 0z"/>
<path d="M212 3015 c0 -16 2 -22 5 -12 2 9 2 23 0 30 -3 6 -5 -1 -5 -18z"/>
<path d="M3238 7063 c7 -3 16 -2 19 1 4 3 -2 6 -13 5 -11 0 -14 -3 -6 -6z"/>
<path d="M3300 7050 c-40 -22 -37 -25 9 -9 17 6 31 15 31 20 0 11 2 12 -40
-11z"/>
<path d="M3238 7033 c7 -3 16 -2 19 1 4 3 -2 6 -13 5 -11 0 -14 -3 -6 -6z"/>
<path d="M3600 7031 c0 -6 -6 -11 -14 -11 -15 0 -28 -24 -19 -34 4 -3 20 -6
36 -6 29 0 29 1 13 19 -13 14 -14 20 -5 23 10 3 10 6 1 12 -7 4 -12 2 -12 -3z
m0 -31 c0 -5 -7 -10 -16 -10 -8 0 -12 5 -9 10 3 6 10 10 16 10 5 0 9 -4 9 -10z"/>
<path d="M3315 7020 l-30 -8 33 -1 c17 0 32 4 32 9 0 6 -1 9 -2 9 -2 -1 -16
-5 -33 -9z"/>
<path d="M3395 7020 c-3 -5 1 -10 9 -10 9 0 16 5 16 10 0 6 -4 10 -9 10 -6 0
-13 -4 -16 -10z"/>
<path d="M3218 7003 c6 -2 18 -2 25 0 6 3 1 5 -13 5 -14 0 -19 -2 -12 -5z"/>
<path d="M3502 6995 c-16 -19 -3 -19 22 0 14 11 16 15 5 15 -8 -1 -20 -7 -27
-15z"/>
<path d="M3646 6994 c-6 -15 3 -18 28 -8 22 8 20 19 -3 21 -11 1 -22 -5 -25
-13z"/>
<path d="M3657 6960 c-41 -22 -51 -25 -42 -10 3 6 -3 10 -14 10 -26 0 -27 -15
-3 -30 15 -10 14 -10 -4 -5 -14 4 -24 0 -28 -10 -9 -24 17 -18 62 15 23 17 46
30 51 30 6 0 13 5 16 10 9 14 5 13 -38 -10z"/>
<path d="M3021 6924 c-19 -8 -32 -16 -29 -19 6 -7 68 18 68 27 0 10 2 10 -39
-8z"/>
<path d="M3875 6930 c-19 -8 -19 -9 3 -9 12 -1 22 4 22 9 0 6 -1 10 -2 9 -2 0
-12 -4 -23 -9z"/>
<path d="M4123 6932 c-15 -5 -20 -11 -14 -20 6 -9 12 -8 26 8 10 11 16 20 14
19 -2 -1 -14 -4 -26 -7z"/>
<path d="M4152 6869 c-1 -28 1 -29 46 -29 40 1 44 2 27 12 -11 6 -24 17 -30
23 -5 7 -17 15 -26 18 -12 4 -16 -2 -17 -24z"/>
<path d="M4217 6879 c7 -7 15 -10 18 -7 3 3 -2 9 -12 12 -14 6 -15 5 -6 -5z"/>
<path d="M4200 6826 c0 -2 7 -7 16 -10 8 -3 12 -2 9 4 -6 10 -25 14 -25 6z"/>
<path d="M2565 6789 c-18 -11 -24 -19 -14 -19 9 0 24 9 34 20 22 24 19 24 -20
-1z"/>
<path d="M4960 6795 c7 -9 15 -13 17 -11 7 7 -7 26 -19 26 -6 0 -6 -6 2 -15z"/>
<path d="M4975 6750 c3 -5 8 -10 11 -10 2 0 4 5 4 10 0 6 -5 10 -11 10 -5 0
-7 -4 -4 -10z"/>
<path d="M5001 6757 c2 -1 15 -11 29 -22 l25 -20 -19 23 c-11 12 -24 22 -29
22 -6 0 -8 -1 -6 -3z"/>
<path d="M5015 6710 c3 -5 8 -10 11 -10 2 0 4 5 4 10 0 6 -5 10 -11 10 -5 0
-7 -4 -4 -10z"/>
<path d="M5075 6700 c3 -5 8 -10 11 -10 2 0 4 5 4 10 0 6 -5 10 -11 10 -5 0
-7 -4 -4 -10z"/>
<path d="M1550 6362 l-12 -27 24 20 c12 11 24 20 26 21 2 1 -4 4 -11 7 -9 3
-19 -5 -27 -21z"/>
<path d="M1449 6273 c-12 -16 -12 -17 2 -6 9 7 20 9 24 5 5 -4 5 -1 1 6 -9 16
-11 15 -27 -5z"/>
<path d="M1195 6079 c-11 -16 -1 -19 13 -3 7 8 8 14 3 14 -5 0 -13 -5 -16 -11z"/>
<path d="M483 5067 c-7 -15 -10 -41 -6 -57 4 -22 0 -36 -12 -50 -17 -19 -17
-20 -1 -20 10 0 23 14 32 35 16 40 19 68 4 45 -8 -13 -10 -13 -10 2 0 9 4 18
8 20 5 2 6 14 2 27 l-5 24 -12 -26z"/>
<path d="M411 4964 c0 -11 3 -14 6 -6 3 7 2 16 -1 19 -3 4 -6 -2 -5 -13z"/>
<path d="M165 4128 c-3 -13 -1 -36 4 -53 8 -27 9 -25 10 23 1 55 -5 67 -14 30z"/>
<path d="M127 3909 c4 -13 8 -18 11 -10 2 7 -1 18 -6 23 -8 8 -9 4 -5 -13z"/>
<path d="M173 3883 c4 -3 2 -12 -5 -20 -8 -11 -8 -17 2 -26 10 -10 12 -9 7 5
-3 10 -2 20 3 23 14 9 12 25 -2 25 -6 0 -8 -3 -5 -7z"/>
<path d="M120 3850 c-6 -11 -8 -20 -6 -20 3 0 10 9 16 20 6 11 8 20 6 20 -3 0
-10 -9 -16 -20z"/>
<path d="M152 3788 c-7 -7 -12 -18 -12 -25 0 -10 6 -10 25 3 14 9 22 20 19 25
-7 12 -18 11 -32 -3z"/>
<path d="M193 3720 c0 -23 3 -28 9 -16 5 9 5 23 0 32 -6 12 -9 7 -9 -16z"/>
<path d="M146 3714 c-9 -24 -8 -26 14 -14 11 6 18 15 15 21 -9 14 -22 11 -29
-7z"/>
<path d="M186 3655 c-3 -8 -1 -15 4 -15 13 0 22 18 11 24 -5 3 -11 -1 -15 -9z"/>
<path d="M185 3610 c-3 -6 1 -7 9 -4 18 7 21 14 7 14 -6 0 -13 -4 -16 -10z"/>
<path d="M52 3575 c0 -16 2 -22 5 -12 2 9 2 23 0 30 -3 6 -5 -1 -5 -18z"/>
<path d="M260 3561 c0 -5 7 -11 15 -15 8 -3 15 -1 15 3 0 5 -7 11 -15 15 -8 3
-15 1 -15 -3z"/>
<path d="M212 3529 c2 -7 10 -15 17 -17 8 -3 12 1 9 9 -2 7 -10 15 -17 17 -8
3 -12 -1 -9 -9z"/>
<path d="M101 3492 c-1 -8 -6 -10 -13 -6 -8 5 -7 1 2 -10 15 -19 26 -7 17 17
-4 9 -6 9 -6 -1z"/>
<path d="M192 3415 c1 -28 4 -41 9 -33 12 18 11 65 0 72 -5 4 -9 -14 -9 -39z"/>
<path d="M62 3350 c-1 -39 1 -70 5 -70 4 0 9 32 11 70 2 39 0 70 -5 70 -4 0
-9 -32 -11 -70z"/>
<path d="M160 3380 c0 -16 5 -30 10 -30 6 0 10 14 10 30 0 17 -4 30 -10 30 -5
0 -10 -13 -10 -30z"/>
<path d="M90 3320 c0 -11 2 -20 4 -20 2 0 6 9 9 20 3 11 1 20 -4 20 -5 0 -9
-9 -9 -20z"/>
</g>
</svg>
